<svg xmlns="http://www.w3.org/2000/svg" data-name="Layer 1" viewBox="0 0 650 512"><path fill="#dbe8ec" d="M593.90418,212.85529V194.66413a13.07945,13.07945,0,0,0-13.07944-13.07946l-46.166,0a13.07946,13.07946,0,0,1-13.07945-13.07946l0-18.19116a13.07945,13.07945,0,0,1,13.07946-13.07945h1.45764a13.07944,13.07944,0,0,0,13.07945-13.07944l0-18.19117a13.07945,13.07945,0,0,0-13.07945-13.07945l-391.90714-.00014a13.07946,13.07946,0,0,0-13.07946,13.07945V124.155a13.07944,13.07944,0,0,0,13.07944,13.07946h0a13.07945,13.07945,0,0,1,13.07945,13.07945l0,18.19117a13.07944,13.07944,0,0,1-13.07945,13.07944l-50.57941,0A13.07945,13.07945,0,0,0,80.55038,194.664l0,18.19116a13.07945,13.07945,0,0,0,13.07945,13.07945l19.84658,0A13.07945,13.07945,0,0,1,126.55585,239.014v18.19124a13.07946,13.07946,0,0,1-13.07946,13.07945h-.048A13.07947,13.07947,0,0,0,100.349,283.36418v18.19108a13.07944,13.07944,0,0,0,13.07944,13.07945h2.87139a13.07947,13.07947,0,0,1,13.07945,13.07946l0,18.19125a13.07944,13.07944,0,0,1-13.07945,13.07944l-47.12451,0A13.07945,13.07945,0,0,0,56.09582,372.0643v18.19116a13.07944,13.07944,0,0,0,13.07944,13.07945l473.963.00017a13.07947,13.07947,0,0,0,13.07946-13.07945V372.06447A13.07945,13.07945,0,0,0,543.13829,358.985H531.79777a13.07947,13.07947,0,0,1-13.07945-13.07946l0-18.19125a13.07945,13.07945,0,0,1,13.07945-13.07945l26.73986,0a13.07944,13.07944,0,0,0,13.07946-13.07944V283.36434a13.07945,13.07945,0,0,0-13.07944-13.07946H550.426a13.07945,13.07945,0,0,1-13.07945-13.07946l0-18.19124a13.07945,13.07945,0,0,1,13.07946-13.07945l30.39867,0A13.07946,13.07946,0,0,0,593.90418,212.85529Z"/><rect width="73.197" height="34.339" x="193.386" y="227.282" fill="#b9d4db" rx="2" transform="rotate(180 229.984 244.452)"/><rect width="73.197" height="34.339" x="229.984" y="186.753" fill="#b9d4db" rx="2" transform="rotate(180 266.583 203.923)"/><rect width="73.197" height="34.339" x="150.597" y="186.753" fill="#b9d4db" rx="2" transform="rotate(180 187.196 203.923)"/><rect width="73.197" height="34.339" x="399.92" y="285.817" fill="#b9d4db" rx="2"/><rect width="73.197" height="34.339" x="363.322" y="326.346" fill="#b9d4db" rx="2"/><rect width="73.197" height="34.339" x="442.709" y="326.346" fill="#b9d4db" rx="2"/><path fill="none" stroke="#3086a3" stroke-linecap="round" stroke-miterlimit="10" stroke-width="4" d="M338.83344,378.83206V391.658a18.677,18.677,0,0,1-18.677,18.677H257.41074a18.677,18.677,0,0,0-18.677,18.677v0a18.677,18.677,0,0,1-18.677,18.677H171.597a18.677,18.677,0,0,1-18.677-18.677V395.90913a18.677,18.677,0,0,0-18.677-18.677H76.09585"/><rect width="200.88" height="195.12" x="238.734" y="64.311" fill="#f9ae2b" rx="7"/><path fill="#409cb5" d="M383.07343,258.59216h-88.48a4,4,0,0,0-4,4v39.51978a4,4,0,0,0,4,4h13.47644a4,4,0,0,1,4,4V346.0321a4,4,0,0,0,4,4h45.527a4,4,0,0,0,4-4V310.11194a4,4,0,0,1,4-4h13.47657a4,4,0,0,0,4-4V262.59216A4,4,0,0,0,383.07343,258.59216Z"/><rect width="80.28" height="14.4" x="298.693" y="335.632" fill="#f9ae2b" rx="7.2"/><path fill="#3086a3" d="M311.65344,350.0321h54.36a0,0,0,0,1,0,0v7.47a6.93,6.93,0,0,1-6.93,6.93H318.58347a6.93,6.93,0,0,1-6.93-6.93v-7.47A0,0,0,0,1,311.65344,350.0321Z"/><path fill="#409cb5" d="M322.50992,364.43207h32.647a0,0,0,0,1,0,0v12.47648a16.3235,16.3235,0,0,1-16.3235,16.3235h0a16.3235,16.3235,0,0,1-16.3235-16.3235V364.43207A0,0,0,0,1,322.50992,364.43207Z"/><line x1="361.833" x2="361.833" y1="258.592" y2="215.752" fill="none" stroke="#3086a3" stroke-miterlimit="10" stroke-width="10"/><line x1="315.833" x2="315.833" y1="258.592" y2="215.752" fill="none" stroke="#3086a3" stroke-miterlimit="10" stroke-width="10"/><circle cx="339.174" cy="161.871" r="47.52" fill="#409cb5"/><path fill="#3086a3" d="M302.56671,173.92324a47.50609,47.50609,0,0,1,76.7716-37.4353,47.513,47.513,0,1,0-69.41614,62.81836A47.27983,47.27983,0,0,1,302.56671,173.92324Z"/><circle cx="316.174" cy="165.109" r="8.28" fill="#3086a3"/><circle cx="362.174" cy="165.109" r="8.28" fill="#3086a3"/><line x1="463.609" x2="495.911" y1="131.272" y2="131.272" fill="none" stroke="#b9d4db" stroke-linecap="round" stroke-miterlimit="10" stroke-width="3"/><line x1="463.609" x2="495.911" y1="140.582" y2="140.582" fill="none" stroke="#b9d4db" stroke-linecap="round" stroke-miterlimit="10" stroke-width="3"/><line x1="463.609" x2="495.911" y1="149.893" y2="149.893" fill="none" stroke="#b9d4db" stroke-linecap="round" stroke-miterlimit="10" stroke-width="3"/><line x1="179.585" x2="211.888" y1="121.961" y2="121.961" fill="none" stroke="#b9d4db" stroke-linecap="round" stroke-miterlimit="10" stroke-width="3"/><line x1="179.585" x2="211.888" y1="131.272" y2="131.272" fill="none" stroke="#b9d4db" stroke-linecap="round" stroke-miterlimit="10" stroke-width="3"/><line x1="179.585" x2="211.888" y1="140.582" y2="140.582" fill="none" stroke="#b9d4db" stroke-linecap="round" stroke-miterlimit="10" stroke-width="3"/><line x1="220.412" x2="252.715" y1="310.237" y2="310.237" fill="none" stroke="#b9d4db" stroke-linecap="round" stroke-miterlimit="10" stroke-width="3"/><line x1="220.412" x2="252.715" y1="319.548" y2="319.548" fill="none" stroke="#b9d4db" stroke-linecap="round" stroke-miterlimit="10" stroke-width="3"/><line x1="220.412" x2="252.715" y1="328.858" y2="328.858" fill="none" stroke="#b9d4db" stroke-linecap="round" stroke-miterlimit="10" stroke-width="3"/></svg>