<svg xmlns="http://www.w3.org/2000/svg" data-name="Layer 1" viewBox="0 0 900 600"><path fill="#ffe3c2" d="M774.958 302.804a46.815 46.815 0 0 0 4.341-14.122c.344-2.229.65-4.447.778-6.7a46.636 46.636 0 0 0-.443-7.743 123.406 123.406 0 0 0-5.883-25.52 192.706 192.706 0 0 0-10.159-24.655 166.2 166.2 0 0 0-13.678-22.494q-2.051-2.868-4.213-5.654a38.318 38.318 0 0 0-4.746-5.468c-1.762-1.552-3.331-3.341-5.01-4.986q-1.263-1.239-2.551-2.452a15.856 15.856 0 0 0-3.804-2.574 4.36 4.36 0 0 0-6.28 5.626 20.749 20.749 0 0 0 1.519 2.92c.714 1.044 1.558 2.003 2.342 2.997q1.889 2.392 3.695 4.847c.129.175.673.858.141.178-.481-.615-.104-.132-.013.033.247.446.508.89.771 1.327a38.3 38.3 0 0 0 2.557 3.514q1.916 2.488 3.743 5.041.857 1.197 1.695 2.408c.111.161.22.324.334.485-.962-1.362-.473-.694-.266-.387q.492.73.98 1.464 1.679 2.53 3.271 5.115c2.158 3.502 4.268 7.047 6.264 10.645a181.32 181.32 0 0 1 10.478 22.336q.531 1.369 1.04 2.746c.15.408.702 2.011.138.362.17.495.35.986.522 1.48q1.03 2.97 2.023 5.954c1.33 4.022 2.544 8.09 3.508 12.217a83.186 83.186 0 0 1 1.422 7.551c.163 1.187.306 2.372.492 3.556q.146.927.263 1.859.05.412.095.824c.012.11.11 1.223.065.634-.04-.522.01.177.013.233.025.42.056.841.069 1.262a24.61 24.61 0 0 1-.016 1.673 42.45 42.45 0 0 1-.299 3.722q-.051.41-.112.818c-.013.09-.179 1.088-.108.7.068-.379-.061.296-.06.296-.087.41-.175.819-.273 1.226a37.212 37.212 0 0 1-1.075 3.618 3.59 3.59 0 0 0 1.88 4.324c1.452.696 3.748.366 4.55-1.236ZM137.47 315.83q-.92-4.674-1.608-9.39-.341-2.36-.622-4.727-.146-1.232-.276-2.465a11.43 11.43 0 0 0-.116-1.14c.04.006-.117 1.524.008.065.303-3.548-.236-7.198-.362-10.763-.113-3.177-.24-6.395-.082-9.573l-.118 1.86c.476-4.434.416-8.92.696-13.373l-.127 2.026a237.787 237.787 0 0 1 7.667-46.68q1.75-6.473 3.918-12.821l-.747 2.18a204.038 204.038 0 0 1 17.593-38.145q3.03-5.097 6.362-10.005l-1.294 1.909q2.686-3.948 5.557-7.766c2.31-3.064 4.752-5.994 6.9-9.174l-1.292 1.907q2.484-3.662 5.128-7.21c.842-1.128 1.723-2.229 2.544-3.37a14.543 14.543 0 0 0 2.849-6.649 6.03 6.03 0 0 0-1.404-5.1 5.703 5.703 0 0 0-4.937-2.08 20.741 20.741 0 0 0-3.235.62 13.466 13.466 0 0 0-3.53 2.015c-1.721 1.325-3.32 2.912-4.917 4.388a66.765 66.765 0 0 0-6.965 6.856 212.103 212.103 0 0 0-12.667 17.744 212.855 212.855 0 0 0-29.59 75.015 195.919 195.919 0 0 0-2.768 40.966c.135 3.32.555 6.586.883 9.89q.492 4.952 1.237 9.874a38.185 38.185 0 0 0 1.096 6.072 5.824 5.824 0 0 0 .386 1.056c.293.5-.032-.507-.042-.533a3.04 3.04 0 0 1 .102.567q.224 1.227.464 2.451a213.512 213.512 0 0 0 2.36 10.696q.602 2.406 1.269 4.795a4.965 4.965 0 0 0 5.704 3.214c2.187-.45 4.457-2.76 3.976-5.202ZM160.653 380.742a62.006 62.006 0 0 1-1.834-1.905q-.383-.417-.76-.842c.442.499-.228-.272-.314-.374q-1.507-1.798-2.868-3.713-1.363-1.92-2.571-3.943-.63-1.053-1.215-2.132c-.21-.387-.412-.78-.619-1.169-.454-.853.295.64-.156-.308a68.404 68.404 0 0 1-3.464-8.73q-.741-2.336-1.286-4.73-.063-.276-.122-.553-.117-.543.069.35a4.716 4.716 0 0 1-.21-1.107 6.415 6.415 0 0 0-2.466-4.326 4.364 4.364 0 0 0-6.682 1.285 6.206 6.206 0 0 0-.651 5.053c.191.856.409 1.706.643 2.551q.652 2.359 1.5 4.657a61.523 61.523 0 0 0 4.646 9.742 62.904 62.904 0 0 0 13.309 15.89 3.807 3.807 0 0 0 5.05-5.696ZM162.08 244.879c7.392-32.495 24.094-62.15 44.429-88.483 18.493-23.95 50.209-39.606 78.16-50.49a273.998 273.998 0 0 1 91.513-18.546c25.633-.717 51.583 2.685 77.001 5.381 15.33 1.626 30.649 3.58 45.851 6.174a437.316 437.316 0 0 1 46.316 10.334c66.543 18.946 129.628 54.731 172.282 108.291 6.941 8.716 13.354 17.922 17.95 27.999 7.215 15.819 9.712 33.204 12.134 50.32 2.924 20.667 5.854 41.613 3.245 62.266-4.245 33.618-22.903 63.898-45.38 89.525-10.615 12.106-22.352 23.566-36.514 31.499-35.99 20.16-80.9 14.593-122.064 7.959-23.368-3.767-47.036-7.516-70.758-6.732-20.09.665-38.36 8.753-58.015 11.792-69.12 10.69-142.125-14.68-191.99-62.648a243.648 243.648 0 0 1-21.472-23.537c-36.363-45.54-55.724-103.804-42.688-161.104Z"/><path fill="#ffc68d" d="M428.002 122.643h43.995v4h-43.995zM428.002 141.017h43.995v4h-43.995zM428.002 159.391h43.995v4h-43.995zM428.002 177.766h43.995v4h-43.995zM428.002 196.14h43.995v4h-43.995zM428.002 214.514h43.995v4h-43.995zM428.002 232.889h43.995v4h-43.995z"/><path fill="#ffc68d" d="M445.412 124.643h4v18.375h-4zM460.163 143.017h4v18.374h-4zM440.495 161.391h4v18.375h-4zM451.364 179.766h4v18.374h-4zM430.402 198.14h4v18.375h-4zM460.163 198.14h4v18.375h-4zM440.495 216.514h4v18.375h-4z"/><path fill="#5e1212" d="M535.222 185.952s-15.59 2.182-20.89 9.977-6.235 11.848-5.923 24.007-7.483 14.03-8.73 17.771-.312 24.943-11.224 15.277c0 0-9.665 12.472-15.589-.311 0 0-12.783 7.482-16.836-4.053s9.042-8.73 6.547-16.525-.935-17.46 7.795-17.46 15.9 6.236 15.9 6.236-1.558-53.002 38.35-50.196 64.538 58.614 32.424 76.697c0 0 3.742-44.584.624-48.949s-11.536-10.6-22.448-12.471Z"/><path fill="#fd8b66" d="M557.67 198.423c-3.118-4.365-11.536-10.6-22.448-12.471 0 0-15.59 2.182-20.89 9.977-5.3 7.794-6.235 11.848-5.923 24.007.312 12.16-7.483 14.03-8.73 17.771-.97 2.91-.623 16.367-5.548 17.671v.004s.871 7.995-1.415 12.776c0 0-.624 18.914 25.358 30.138 0 0 13.302.832 19.33-16.628a81.893 81.893 0 0 1 0-15.173s12.471-.104 19.642-19.122c0 0 3.742-44.585.624-48.95Z"/><path fill="#e6560f" d="m561.307 300.167-23.903-18.499c-6.027 17.46-19.33 16.628-19.33 16.628-25.982-11.224-25.358-30.138-25.358-30.138s-32.01 7.067-45.312 19.538c-13.303 12.471-33.308 41.005-33.308 41.005s34.555 35.9 35.802 35.9h1.247l8.315-10.808s-2.495 41.986-5.197 45.312c0 0 45.252 11.125 92.259 3.077a4.565 4.565 0 0 0 3.732-3.624c.525-2.729 1.45-6.495 2.729-7.767 2.089-2.079 5.928-8.73 5.928-8.73l3.228 7.898 32.425-25.773s-9.354-45.52-33.257-64.019Z"/><path fill="#376f92" d="M474.893 440.052s-20.144-16.562-21.998-17.011l-1.417 24.805c11.653-1.14 22.01-2.364 31.434-7.416-3.415-.06-6.328-.177-8.02-.378ZM463.037 405.104s22.144 2.523 32.433 3.302 11.536 2.183 13.562 4.365a33.358 33.358 0 0 0 3.747 2.996c38.039-44.384 48.528-115.6 48.528-115.6-7.274-16.42-23.903-18.499-23.903-18.499-36.79 18.707-79.192 87.922-79.192 87.922l-3.949 29.515-.063 1.099q4.044 2.303 8.837 4.9Z"/><path fill="#e6560f" d="m546.91 413.009-33.442 1.945h-.001c-.23.272-.467.535-.698.805 2.918 2.159 6.112 4.57 4.993 5.586-1.715 1.559-7.015 1.091-7.015 1.091s6.08 12.783 3.274 12.94-8.834-4.834-8.834-4.834 4.78 9.198 2.91 9.51c-.954.159-7.864.358-15.277.412-3.372.025-6.843.019-9.91-.034-5.398 2.894-12.144 3.926-18.259 5.623l-5.992 1.028 100.251.765Z"/><ellipse cx="527.739" cy="464.215" fill="#ffb957" rx="43.06" ry="10.133"/><ellipse cx="510.747" cy="465.395" fill="#e6560f" rx="5.226" ry="3.159"/><ellipse cx="527.739" cy="470.21" fill="#e6560f" rx="5.226" ry="3.159"/><ellipse cx="544.575" cy="460.277" fill="#e6560f" rx="5.226" ry="3.159"/><ellipse cx="523.615" cy="460.277" fill="#e6560f" rx="2.588" ry="1.564"/><ellipse cx="493.892" cy="463.436" fill="#e6560f" rx="2.588" ry="1.564"/><ellipse cx="544.575" cy="469.36" fill="#e6560f" rx="2.588" ry="1.564"/><ellipse cx="560.58" cy="465" fill="#e6560f" rx="2.588" ry="1.564"/><ellipse cx="534.143" cy="463.801" fill="#f89017" rx=".996" ry=".801"/><ellipse cx="500.814" cy="466.564" fill="#f89017" rx=".996" ry=".801"/><ellipse cx="513.276" cy="457.919" fill="#f89017" rx=".996" ry=".801"/><ellipse cx="553.542" cy="469.355" fill="#f89017" rx=".996" ry=".801"/><ellipse cx="534.627" cy="456.514" fill="#f89017" rx=".996" ry=".801"/><ellipse cx="517.991" cy="471.376" fill="#f89017" rx=".996" ry=".801"/><ellipse cx="555.534" cy="461.436" fill="#f89017" rx=".996" ry=".801"/><ellipse cx="500.814" cy="460.277" fill="#f89017" rx=".996" ry=".801"/><path fill="#490000" d="M243.986 446.346h436.49v3h-436.49z"/><path fill="#376f92" d="M625.412 233.767h-15.9a2.598 2.598 0 0 0 0 5.197h15.9ZM714.581 233.767h-14.342v5.197h14.342a2.598 2.598 0 0 0 0-5.197Z"/><path fill="#d04719" d="M537.404 266.495s-16.836-.113-25.877-8.059c0 0 2.247 10.457 25.52 13.727ZM527.583 238.174s-.935 8.418 8.73 8.262c0 0 0-4.443-3.741-4.755 0 0 .935-3.351-4.989-3.507ZM536.313 210.427a56.79 56.79 0 0 1 3.363 6.678c1 2.278 1.864 4.61 2.648 6.979a35.734 35.734 0 0 1 1.689 7.391 7.002 7.002 0 0 1 0 1.047 2.806 2.806 0 0 1-.116.622 1.176 1.176 0 0 1-.684.783 1.482 1.482 0 0 1-.317.06l-.119-.004-.237-.007-.474-.02-.942-.06a29.298 29.298 0 0 1-3.72-.554l3.705-.427.914-.107.454-.06.226-.033.113-.016a.13.13 0 0 0-.09.01c-.178.07-.17.146-.161.056a1.846 1.846 0 0 0 .006-.295 5.708 5.708 0 0 0-.108-.805 36.361 36.361 0 0 0-.933-3.469 117.016 117.016 0 0 0-1.108-3.5c-.735-2.344-1.511-4.685-2.207-7.058-.709-2.37-1.38-4.757-1.902-7.211Z"/><path fill="#490000" d="m515.685 203.853-.835-1.817c.34-.157 8.375-3.783 13.93.088l-1.145 1.64c-4.604-3.212-11.877.054-11.95.09ZM542.782 205.447l-.835-1.817c.34-.156 8.376-3.782 13.93.088l-1.145 1.64c-4.604-3.213-11.878.056-11.95.09ZM521.66 218.6c2.895 0 2.9-4.5 0-4.5-2.896 0-2.9 4.5 0 4.5ZM549.096 218.6c2.895 0 2.9-4.5 0-4.5-2.896 0-2.9 4.5 0 4.5Z"/><path fill="#490000" d="M552.946 214.362a3.368 3.368 0 0 1-1.175-.206 3.51 3.51 0 0 1-1.294-.879 2.807 2.807 0 0 0-1.935-.86 1.875 1.875 0 0 0-1.237.84 1 1 0 1 1-1.58-1.227 3.784 3.784 0 0 1 2.646-1.604 4.734 4.734 0 0 1 3.442 1.359l.081.081a1.577 1.577 0 0 0 .576.416 1.17 1.17 0 0 0 .499.08h.013a1 1 0 0 1 .014 2ZM517.453 214.362h-.05a1 1 0 0 1 .014-2h.037a1.341 1.341 0 0 0 .477-.08 1.568 1.568 0 0 0 .574-.416l.082-.082a4.707 4.707 0 0 1 3.442-1.358 3.784 3.784 0 0 1 2.645 1.604 1 1 0 0 1-1.58 1.227 1.876 1.876 0 0 0-1.236-.84 2.836 2.836 0 0 0-1.874.798 3.654 3.654 0 0 1-1.355.94 3.355 3.355 0 0 1-1.176.207Z"/><path fill="#af2500" d="m459.46 353.793 9.56-15.381-12.637 44.85s2.725-21.435 3.076-29.47Z"/><path fill="#fd8b66" d="m447.137 362.262-18.544 21.426s9.026 7.67 34.444 21.417c0 0 22.144 2.522 32.433 3.301s11.536 2.183 13.562 4.365 10.445 7.015 8.73 8.574-7.015 1.091-7.015 1.091 6.08 12.783 3.274 12.94-8.834-4.833-8.834-4.833 4.78 9.197 2.91 9.509c-.954.159-7.864.358-15.277.412-7.127.052-14.718-.03-17.927-.412 0 0-20.144-16.562-21.998-17.01s-46.75 1.11-62.65-12.61c-7.273-6.273-12.472-16.523-3.43-35.854s28.996-44.064 28.996-44.064Z"/><path fill="#d04719" d="M399.598 385.496a39.747 39.747 0 0 1 6.655-4.426 28.795 28.795 0 0 1 7.544-2.914l1.017-.185c.342-.055.697-.062 1.044-.094a10.85 10.85 0 0 1 2.126.046 16.77 16.77 0 0 1 3.887 1.428 26.11 26.11 0 0 1 6.722 4.337 50.545 50.545 0 0 0-7.178-3.259 19.514 19.514 0 0 0-3.617-1.098 12.209 12.209 0 0 0-3.697.293 38.464 38.464 0 0 0-7.341 2.496c-2.405 1.043-4.777 2.193-7.162 3.376ZM420.175 365.848a20.052 20.052 0 0 1 4.12 2.853 22.3 22.3 0 0 1 3.417 3.715 14.737 14.737 0 0 1 2.32 4.554 8.173 8.173 0 0 1 .002 5.054c-.104-3.358-1.652-6.147-3.536-8.729a90.745 90.745 0 0 0-6.323-7.447ZM505.187 430.542a13.865 13.865 0 0 1-2.153-1.868 22.442 22.442 0 0 1-1.821-2.12 22.125 22.125 0 0 1-1.558-2.322 13.712 13.712 0 0 1-1.223-2.575 13.717 13.717 0 0 1 2.154 1.867 22.126 22.126 0 0 1 1.82 2.122 22.443 22.443 0 0 1 1.556 2.322 13.875 13.875 0 0 1 1.225 2.574ZM502.803 440.3a23.881 23.881 0 0 1-2.927-2.36 39.618 39.618 0 0 1-2.62-2.639 39.061 39.061 0 0 1-2.374-2.861 23.604 23.604 0 0 1-2.062-3.145 23.61 23.61 0 0 1 2.93 2.358 39.08 39.08 0 0 1 2.617 2.64c.83.92 1.629 1.866 2.372 2.863a23.882 23.882 0 0 1 2.064 3.143ZM486.428 435.011a7.23 7.23 0 0 1 1.8.951 11.027 11.027 0 0 1 1.506 1.248 10.87 10.87 0 0 1 1.275 1.484 7.16 7.16 0 0 1 .98 1.784 7.158 7.158 0 0 1-1.8-.95 10.864 10.864 0 0 1-1.506-1.249 11.019 11.019 0 0 1-1.273-1.485 7.236 7.236 0 0 1-.982-1.783Z"/><path fill="#fd8b66" d="M546.069 402.255s-.77 6.35.84 10.754l-33.441 1.945 7.775-10.1s21.02-1.086 24.826-2.599Z"/><path fill="#78c1d0" d="M527.74 451.743c-29.273 0-53.003 5.586-53.003 12.472s23.73 12.47 53.002 12.47 53.002-5.585 53.002-12.47-23.73-12.472-53.002-12.472Zm0 22.604c-23.783 0-43.061-4.538-43.061-10.132 0-5.595 19.278-10.133 43.06-10.133s43.06 4.538 43.06 10.133c0 5.594-19.278 10.132-43.06 10.132Z"/><path fill="#376f92" d="M527.74 476.686c-22.785 0-42.207-3.385-49.7-8.132a50.042 50.042 0 0 0 99.397 0c-7.492 4.747-26.913 8.132-49.698 8.132Z"/><path fill="#78c1d0" d="m515.03 440.76 2.79-2.055 14.378 19.517-2.79 2.056zM498.58 408.692l3.792 5.136c-.181-.052-.372-.087-.563-.122a84.48 84.48 0 0 1-12.947-3.602l-1.81-2.443-7.794-10.557a4.329 4.329 0 1 1 6.963-5.144Z"/><path fill="#78c1d0" d="M520.568 445.733a4.335 4.335 0 0 1-6.062-.91l-7.206-9.76a69.295 69.295 0 0 0-2.104-4.503c.268.216 6.088 4.971 8.825 4.815 1.42-.078.571-3.378-.624-6.625l8.08 10.93a4.33 4.33 0 0 1-.909 6.053Z"/><path fill="#e6560f" d="M600.158 280.118H724.87v10.808H600.158z"/><path fill="#376f92" d="M625.412 233.767h74.827v46.351h-74.827z"/><path fill="#133852" d="M700.24 233.767h-74.828l4.403-2.303a71.213 71.213 0 0 1 66.022 0Z"/><path fill="#376f92" d="M655.551 216.602h3.378v6.86a71.29 71.29 0 0 1 7.794 0v-6.86h3.378a2.165 2.165 0 0 0 0-4.33h-14.55a2.165 2.165 0 1 0 0 4.33Z"/><path fill="#d04719" d="M486.428 409.186c2.396.59 4.734 1.26 7.094 1.858 2.358.597 4.71 1.189 7.078 1.662.609.14 1.14.22 1.816.382a13.844 13.844 0 0 1 1.837.583 10.11 10.11 0 0 1 3.258 2.092 10.517 10.517 0 0 1 3.236 6.673 12.791 12.791 0 0 0-4.004-5.79 13.004 13.004 0 0 0-6.446-2.471 54.469 54.469 0 0 1-7.116-2.016 47.321 47.321 0 0 1-6.753-2.973Z"/><path fill="#e6560f" d="M337.549 456.174h-19.32a39.49 39.49 0 0 1-14.14-2.61v8.978a1 1 0 0 0 1 1h45.6a1 1 0 0 0 1-1v-8.978a39.49 39.49 0 0 1-14.14 2.61Z"/><path fill="#f4ac56" d="M341.951 379.379a29.423 29.423 0 0 0-2.3-5.092 15.645 15.645 0 0 0-2.956-4.106c-.683-.642-.581-.4-2.957-2.3a17.261 17.261 0 0 0-2.628-1.971 9.763 9.763 0 0 0-3.285-.985c-3.272-.518-5.309-.84-7.391 0-2.214.892-3.309 2.624-4.764 4.927a16.84 16.84 0 0 0-2.956 9.855c.09 2.29.894 2.33 1.36 3.474l7.682 9.114 2.792 1.483 12.774-5.775Z"/><path fill="#f29e41" d="M359.708 397.501c.513-.853.529-2.522.475-4.325-.028-.964-.263-1.82-1.478-4.27-1.7-3.431-2.551-5.146-3.45-5.914-1.17-1-1.218-.44-6.24-2.628-2.54-1.105-2.977-1.444-4.107-1.478-.6-.018-1.927.035-4.928 1.807-1.51.892-1.99.089-4.165 2.228v.83l4.464 13.692 4.763 7.825s7.974 8.753 11.32.493Z"/><path fill="#ffb957" d="M350.41 402.079c.743-.545.716-1.135 1.56-3.113a8.082 8.082 0 0 0 .37-5.79c-.488-1.305-.945-1.136-1.97-3.08-1.16-2.195-.822-2.878-1.602-4.065-1.163-1.77-3.231-2.258-5.667-2.833a16.735 16.735 0 0 0-8.5 0c-2.022.547-5.644 1.527-7.761 4.927a16.783 16.783 0 0 0-2.292 5.653l-2.553 8.72 8.757 7.658 6.57 2.547s3.737 3.893 8.413-3.366Z"/><path fill="#f29e41" d="M323.082 402.497a6.314 6.314 0 0 0 1.663-3.284 8.816 8.816 0 0 0 .124-4.558 21.466 21.466 0 0 0-1.11-2.587c-1.16-2.851-.822-3.333-1.6-4.435-.58-.82-1.668-1.38-3.82-2.464a25.035 25.035 0 0 0-5.05-2.218 13.236 13.236 0 0 0-7.022.493c-1.978.618-5.34 1.669-7.392 4.928-2.93 4.652-.813 10.027-.493 10.84a7.634 7.634 0 0 0 1.513 2.787l8.137 7.346h8.383Z"/><path fill="#f4ac56" d="M327.579 424.59a9.504 9.504 0 0 0 3.819-1.355 5.48 5.48 0 0 0 2.464-1.848c.612-.986.326-1.656.492-3.203.35-3.253 1.97-3.586 1.725-5.667-.135-1.146-.87-2.037-2.34-3.819a18.978 18.978 0 0 0-3.696-3.449 14.531 14.531 0 0 0-5.667-2.587 17.24 17.24 0 0 0-4.312-.123c-3.514.145-5.49.227-7.638 1.355a26.408 26.408 0 0 0-4.687 4.21l-1.842 6.343 1.15 6.974-.78 3.292s7.336.99 21.312-.123ZM352.27 402.347c.521-.965.523-.942 2.165-2.272 1.01-.818 3.37-2.73 6.406-2.628 1.658.055 3.623 1.406 7.555 4.106a11.678 11.678 0 0 1 3.285 2.957 10.106 10.106 0 0 1 1.643 3.778c.217 1.059.066 1.218 0 4.435-.067 3.244.073 3.735-.329 4.763a10.666 10.666 0 0 1-2.627 3.53l-8.324-3.171Z"/><path fill="#ffb957" d="M285.078 422.126a10.383 10.383 0 0 1-2.34-3.942 10.858 10.858 0 0 1 .122-6.652 23.094 23.094 0 0 1 1.971-3.573c2.104-3.687 1.68-3.903 2.464-4.681 1.841-1.825 4.665-1.836 7.515-1.848 2.394-.01 2.026.432 5.913.616 2.049.097 2.959.012 4.189.616a5.78 5.78 0 0 1 2.833 2.833c.706 1.769-.357 2.538-.616 6.037a18.364 18.364 0 0 0 .37 5.79c.501 2.122 1.14 2.897.862 4.312a5.376 5.376 0 0 1-2.094 3.08"/><path fill="#ed8120" d="m334.532 411.622 2.79 1.081s3.737 3.893 8.413-3.366l4.676-7.258c.656-.482.714-1.002 1.3-2.482a13.258 13.258 0 0 0-3.182-.341 14.294 14.294 0 0 0-6.775 1.847c-3.404 1.93-5.667 6.53-5.667 6.53a19.922 19.922 0 0 0-1.555 3.989Z"/><path fill="#ea7706" d="M298.998 416.747a2.21 2.21 0 0 1 .181 1.612 2.766 2.766 0 0 1-.845 1.363 3.418 3.418 0 0 1-.516.378c-.066.032-.1.055-.114.021-.008-.027-.01-.125-.054-.166-.087-.103-.188.047-.145.239a5.532 5.532 0 0 0 .18.741 1.483 1.483 0 0 1-.874-.046 1.17 1.17 0 0 1-.733-.904 1.338 1.338 0 0 1 .126-.79 2.21 2.21 0 0 1 .315-.477 5.45 5.45 0 0 1 .48-.485c.273-.241.514-.423.826-.663.32-.231.658-.507 1.173-.823ZM295.878 406.974a1.159 1.159 0 0 1 .82-.608 1.072 1.072 0 0 1 .857.253 1.023 1.023 0 0 1-.211 1.751 2.217 2.217 0 0 0-.834-.236c-.163-.002-.218.036-.256.003a.977.977 0 0 1-.109-.304 20.693 20.693 0 0 0-.267-.86ZM288.979 409.684a1.216 1.216 0 0 1-.886-.466 1.022 1.022 0 0 1-.168-.818 1.135 1.135 0 0 1 .588-.764.914.914 0 0 1 1.04.16 1.485 1.485 0 0 0 .191.818c.09.13.153.157.135.211-.012.055-.087.132-.224.263ZM304.83 417.65a.817.817 0 0 1 1.046-.142 1.1 1.1 0 0 1 .532.644.902.902 0 0 1-.085.702 1.473 1.473 0 0 1-.754.603 3.648 3.648 0 0 1-.81-.434.677.677 0 0 1-.273-.319c-.027-.094.012-.173.105-.299a.958.958 0 0 0 .238-.755ZM291.36 417.65a9.42 9.42 0 0 0 .676.66c.147.128.24.138.228.115 0-.028-.117.018-.061.19a3.892 3.892 0 0 0 .39.842 1.109 1.109 0 0 1-.93.635 1.293 1.293 0 0 1-1.195-1.782 1.179 1.179 0 0 1 .893-.66ZM303.433 408.74a1.446 1.446 0 0 1 1.216.006 1.636 1.636 0 0 1 .782.767 1.528 1.528 0 0 1-.602 2.06c-.404-.31-.615-.517-.812-.692a1.799 1.799 0 0 1-.378-.48 1.927 1.927 0 0 1-.151-.603 14.348 14.348 0 0 1-.055-1.058ZM301.544 412.701a1.074 1.074 0 0 1 .702-.737 1.052 1.052 0 0 1 .924.18 1.072 1.072 0 0 1 .45.9.987.987 0 0 1-.597.844 2.453 2.453 0 0 0-.84-.203.33.33 0 0 0-.21.062.924.924 0 0 0-.056-.25 5.318 5.318 0 0 0-.373-.796ZM287.254 414.447a1.093 1.093 0 0 1-.59-.888 1.204 1.204 0 0 1 1.42-1.215 1.087 1.087 0 0 1 .781.728 4.619 4.619 0 0 0-.417.802c-.066.16-.032.243-.058.255a3.288 3.288 0 0 0-1.136.318ZM294.728 412.692a1.081 1.081 0 0 1-.784-.708 1.142 1.142 0 0 1 .141-.967 1.08 1.08 0 0 1 1.793-.101 6.158 6.158 0 0 0-.11.897c-.012.175.027.258-.004.29a5.465 5.465 0 0 0-1.036.589ZM310.25 416.583a1.384 1.384 0 0 1-1.07-.675 1.638 1.638 0 0 1-.163-1.263 1.6 1.6 0 0 1 .928-1.07 1.133 1.133 0 0 1 1.29.297 1.938 1.938 0 0 0-.304.929c.014.185.05.262.014.374a2.922 2.922 0 0 1-.223.46c-.12.218-.251.49-.472.948ZM327.174 417.65a1.12 1.12 0 0 1 1.1-.493 1.377 1.377 0 0 1 .126 2.71c-.335-.362-.504-.6-.65-.78a3.261 3.261 0 0 1-.246-.283c-.02-.03.045-.083.02-.272a2.848 2.848 0 0 0-.35-.882ZM318.216 420.935c.431-.182.654-.314.854-.407a.897.897 0 0 1 .466-.114.993.993 0 0 1 .469.196 5.705 5.705 0 0 1 .757.627 1.406 1.406 0 0 1-.542.931 1.278 1.278 0 0 1-.865.237 1.328 1.328 0 0 1-.834-.408 1.196 1.196 0 0 1-.305-1.062ZM314.356 410.156a6.562 6.562 0 0 1 1.009.36 1.838 1.838 0 0 1 .515.333 1.192 1.192 0 0 1 .269.434 4.637 4.637 0 0 0 .507.865 1.223 1.223 0 0 1-1.098.593 1.622 1.622 0 0 1-1.553-1.446 1.539 1.539 0 0 1 .351-1.139ZM325.526 412.15a1.118 1.118 0 0 1 1.096.042 1.24 1.24 0 0 1 .56.855 1.225 1.225 0 0 1-.246.98 1.192 1.192 0 0 1-1 .42c-.269-.392-.404-.613-.533-.773-.107-.159-.19-.225-.194-.297-.012-.144.162-.338.317-1.227ZM311.235 421.178a6.576 6.576 0 0 0 .932.282c.2.04.27-.019.251-.028-.015-.014-.013.082.162.19.176.12.44.229.873.463a1.268 1.268 0 0 1-.486 1.062 1.386 1.386 0 0 1-2.136-.866 1.203 1.203 0 0 1 .404-1.103ZM317.806 415.228a2.292 2.292 0 0 1 .788-.33.457.457 0 0 1 .396.08.445.445 0 0 1 .099.39 1.077 1.077 0 0 1-1.088 1.136.445.445 0 0 1-.394-.082.457.457 0 0 1-.097-.393 2.29 2.29 0 0 1 .296-.801ZM324.548 407.795a2.732 2.732 0 0 1 .822.062c.162.048.248.114.27.196.02.082-.026.18-.149.296a1.346 1.346 0 0 1-1.528.37c-.163-.048-.249-.114-.267-.196-.02-.083.027-.18.15-.298a2.738 2.738 0 0 1 .702-.43ZM332.516 414.447a2.73 2.73 0 0 1 .82.063c.163.047.25.113.27.195.022.082-.025.18-.147.297a1.347 1.347 0 0 1-1.529.37c-.162-.048-.249-.114-.267-.197-.019-.082.028-.18.15-.297a2.74 2.74 0 0 1 .703-.43ZM319.81 408.737a2.73 2.73 0 0 1 .821.062c.162.048.249.114.27.196.021.082-.026.18-.148.296a1.346 1.346 0 0 1-1.529.37c-.162-.048-.249-.114-.267-.196-.019-.083.028-.18.15-.298a2.733 2.733 0 0 1 .703-.43ZM329.766 394.859a1.383 1.383 0 0 1-1.07-.674 1.638 1.638 0 0 1-.163-1.264 1.6 1.6 0 0 1 .929-1.07 1.133 1.133 0 0 1 1.29.298 1.938 1.938 0 0 0-.305.928c.014.186.05.262.014.374a2.906 2.906 0 0 1-.222.46c-.12.218-.252.491-.473.948ZM346.69 395.927a1.12 1.12 0 0 1 1.101-.494 1.377 1.377 0 0 1 .126 2.711c-.336-.363-.505-.6-.65-.781a3.345 3.345 0 0 1-.246-.283c-.02-.03.045-.082.019-.271a2.85 2.85 0 0 0-.35-.882ZM337.733 399.212c.43-.183.653-.315.853-.407a.897.897 0 0 1 .466-.115.993.993 0 0 1 .469.197 5.71 5.71 0 0 1 .758.626 1.407 1.407 0 0 1-.543.931 1.279 1.279 0 0 1-.864.238 1.328 1.328 0 0 1-.834-.41 1.196 1.196 0 0 1-.305-1.06ZM333.873 388.433a6.55 6.55 0 0 1 1.008.36 1.835 1.835 0 0 1 .515.332 1.19 1.19 0 0 1 .27.435 4.636 4.636 0 0 0 .506.864 1.223 1.223 0 0 1-1.098.593 1.622 1.622 0 0 1-1.553-1.445 1.539 1.539 0 0 1 .352-1.14ZM345.042 390.426a1.117 1.117 0 0 1 1.096.042 1.24 1.24 0 0 1 .56.855 1.225 1.225 0 0 1-.246.98 1.192 1.192 0 0 1-1 .42c-.269-.392-.404-.613-.532-.773-.108-.158-.191-.224-.194-.297-.013-.144.161-.338.316-1.227ZM330.752 399.454a6.569 6.569 0 0 0 .931.282c.2.04.27-.019.252-.028-.016-.014-.014.082.162.19.175.12.44.229.872.464a1.268 1.268 0 0 1-.485 1.06 1.385 1.385 0 0 1-2.136-.865 1.203 1.203 0 0 1 .404-1.103ZM337.322 393.504a2.293 2.293 0 0 1 .789-.33.457.457 0 0 1 .395.08.445.445 0 0 1 .1.39 1.076 1.076 0 0 1-1.089 1.136.445.445 0 0 1-.394-.082.457.457 0 0 1-.097-.392 2.294 2.294 0 0 1 .296-.802ZM344.065 386.071a2.73 2.73 0 0 1 .82.063c.163.047.25.113.27.195.022.082-.025.18-.147.297a1.347 1.347 0 0 1-1.529.37c-.162-.049-.249-.115-.267-.197-.019-.082.028-.18.15-.297a2.731 2.731 0 0 1 .703-.43ZM352.032 392.724a2.732 2.732 0 0 1 .821.062c.163.048.249.114.27.196.021.081-.025.18-.148.296a1.346 1.346 0 0 1-1.529.37c-.162-.048-.248-.114-.267-.197-.018-.082.028-.18.15-.297a2.73 2.73 0 0 1 .703-.43ZM339.326 387.013a2.734 2.734 0 0 1 .821.063c.163.047.25.113.27.195.021.082-.025.18-.148.297a1.346 1.346 0 0 1-1.528.37c-.163-.049-.25-.115-.267-.197-.02-.082.027-.18.15-.297a2.73 2.73 0 0 1 .702-.43ZM316.089 376.826a1.383 1.383 0 0 1-1.071-.674 1.638 1.638 0 0 1-.162-1.264 1.6 1.6 0 0 1 .928-1.07 1.133 1.133 0 0 1 1.29.298 1.937 1.937 0 0 0-.304.928c.013.186.05.262.013.374a2.92 2.92 0 0 1-.222.46c-.12.218-.251.491-.472.948ZM333.013 377.894a1.12 1.12 0 0 1 1.1-.494 1.377 1.377 0 0 1 .126 2.711c-.336-.362-.504-.6-.65-.781a3.325 3.325 0 0 1-.246-.283c-.02-.03.045-.082.02-.271a2.848 2.848 0 0 0-.35-.882ZM324.055 381.179c.431-.183.654-.315.853-.407a.897.897 0 0 1 .466-.115.993.993 0 0 1 .47.197 5.712 5.712 0 0 1 .757.626 1.407 1.407 0 0 1-.542.931 1.278 1.278 0 0 1-.865.238 1.328 1.328 0 0 1-.834-.41 1.196 1.196 0 0 1-.305-1.06ZM320.195 370.4a6.557 6.557 0 0 1 1.008.36 1.836 1.836 0 0 1 .515.332 1.19 1.19 0 0 1 .27.435 4.634 4.634 0 0 0 .507.864 1.223 1.223 0 0 1-1.098.593 1.622 1.622 0 0 1-1.553-1.445 1.539 1.539 0 0 1 .351-1.14ZM331.364 372.393a1.117 1.117 0 0 1 1.097.042 1.24 1.24 0 0 1 .56.855 1.224 1.224 0 0 1-.246.98 1.192 1.192 0 0 1-1 .42c-.27-.392-.404-.613-.533-.773-.107-.158-.19-.224-.194-.297-.012-.144.162-.338.316-1.227ZM317.074 381.421a6.577 6.577 0 0 0 .931.282c.2.04.27-.019.252-.028-.015-.014-.013.082.162.19.176.12.44.229.873.464a1.268 1.268 0 0 1-.486 1.06 1.386 1.386 0 0 1-2.136-.865 1.203 1.203 0 0 1 .404-1.103ZM323.644 375.47a2.291 2.291 0 0 1 .789-.329.457.457 0 0 1 .396.08.445.445 0 0 1 .099.39 1.076 1.076 0 0 1-1.089 1.136.445.445 0 0 1-.393-.082.457.457 0 0 1-.097-.392 2.294 2.294 0 0 1 .295-.802ZM330.387 368.038a2.73 2.73 0 0 1 .821.063c.163.047.249.113.27.195.021.082-.025.18-.148.297a1.347 1.347 0 0 1-1.529.37c-.162-.049-.248-.115-.267-.197-.018-.082.028-.18.15-.297a2.735 2.735 0 0 1 .703-.43ZM338.354 374.69a2.732 2.732 0 0 1 .822.063c.162.048.248.114.27.196.02.081-.026.18-.149.296a1.346 1.346 0 0 1-1.528.37c-.163-.048-.249-.114-.267-.197-.019-.082.028-.18.15-.297a2.733 2.733 0 0 1 .702-.43ZM325.649 368.98a2.732 2.732 0 0 1 .82.063c.163.047.25.113.27.195.022.082-.025.18-.147.297a1.346 1.346 0 0 1-1.529.37c-.162-.049-.249-.115-.267-.197-.019-.083.028-.18.15-.297a2.732 2.732 0 0 1 .703-.43ZM299.49 394.43a1.384 1.384 0 0 1-1.07-.675 1.639 1.639 0 0 1-.162-1.263 1.6 1.6 0 0 1 .928-1.07 1.134 1.134 0 0 1 1.29.298 1.938 1.938 0 0 0-.304.928c.013.185.05.262.014.374a2.929 2.929 0 0 1-.223.46c-.12.218-.251.491-.472.948ZM316.415 395.498a1.12 1.12 0 0 1 1.1-.494 1.377 1.377 0 0 1 .126 2.711c-.336-.363-.504-.6-.65-.781a3.28 3.28 0 0 1-.246-.283c-.02-.03.045-.082.02-.271a2.848 2.848 0 0 0-.35-.882ZM307.457 398.783c.431-.183.654-.315.853-.407a.897.897 0 0 1 .466-.115.993.993 0 0 1 .47.197 5.708 5.708 0 0 1 .757.626 1.407 1.407 0 0 1-.542.931 1.278 1.278 0 0 1-.865.238 1.328 1.328 0 0 1-.834-.41 1.196 1.196 0 0 1-.305-1.06ZM303.597 388.003a6.562 6.562 0 0 1 1.009.36 1.838 1.838 0 0 1 .514.333 1.191 1.191 0 0 1 .27.435 4.646 4.646 0 0 0 .507.864 1.223 1.223 0 0 1-1.098.593 1.622 1.622 0 0 1-1.553-1.445 1.539 1.539 0 0 1 .351-1.14ZM314.766 389.997a1.117 1.117 0 0 1 1.097.042 1.24 1.24 0 0 1 .56.855 1.225 1.225 0 0 1-.246.98 1.192 1.192 0 0 1-1 .42c-.27-.392-.404-.613-.533-.773-.107-.158-.19-.224-.194-.297-.012-.144.162-.338.316-1.227ZM300.476 399.025a6.568 6.568 0 0 0 .931.282c.2.04.27-.019.252-.028-.015-.014-.013.082.162.19.176.12.44.229.873.463a1.268 1.268 0 0 1-.486 1.062 1.386 1.386 0 0 1-2.136-.866 1.203 1.203 0 0 1 .404-1.103ZM307.047 393.075a2.291 2.291 0 0 1 .788-.33.457.457 0 0 1 .396.08.445.445 0 0 1 .099.39 1.077 1.077 0 0 1-1.088 1.136.445.445 0 0 1-.394-.082.457.457 0 0 1-.097-.392 2.29 2.29 0 0 1 .296-.802ZM313.79 385.642a2.731 2.731 0 0 1 .82.063c.163.047.249.113.27.195.021.082-.025.18-.148.297a1.346 1.346 0 0 1-1.529.37c-.162-.049-.248-.115-.267-.197-.018-.083.028-.18.151-.297a2.732 2.732 0 0 1 .702-.43ZM321.756 392.295a2.73 2.73 0 0 1 .822.062c.162.048.248.114.27.195.02.082-.026.18-.149.297a1.347 1.347 0 0 1-1.528.37c-.162-.048-.249-.114-.267-.197-.019-.082.028-.18.15-.297a2.733 2.733 0 0 1 .702-.43ZM309.05 386.584a2.73 2.73 0 0 1 .822.062c.162.048.248.114.27.196.02.082-.026.18-.148.297a1.346 1.346 0 0 1-1.529.37c-.162-.049-.249-.115-.267-.197-.019-.083.028-.18.15-.297a2.731 2.731 0 0 1 .703-.43ZM353.159 387.603a1.383 1.383 0 0 1-1.071-.674 1.638 1.638 0 0 1-.162-1.264 1.6 1.6 0 0 1 .928-1.07 1.134 1.134 0 0 1 1.29.298 1.938 1.938 0 0 0-.304.928c.013.185.05.262.013.374a2.919 2.919 0 0 1-.222.46c-.12.218-.251.491-.472.948ZM370.28 413.987a1.12 1.12 0 0 1-.695.986 1.377 1.377 0 0 1-1.489-2.27c.474.142.74.26.957.342a3.318 3.318 0 0 1 .356.118c.033.016.003.094.122.243a2.848 2.848 0 0 0 .75.581ZM366.798 406.772a1.117 1.117 0 0 1 1.096.042 1.24 1.24 0 0 1 .56.855 1.225 1.225 0 0 1-.246.98 1.191 1.191 0 0 1-1 .42c-.269-.392-.404-.613-.533-.774-.107-.158-.19-.224-.194-.296-.012-.145.162-.338.317-1.227ZM354.144 392.198a6.575 6.575 0 0 0 .931.282c.2.04.27-.019.252-.028-.015-.014-.014.082.162.19.176.12.44.229.873.464a1.268 1.268 0 0 1-.486 1.06 1.386 1.386 0 0 1-2.136-.865 1.203 1.203 0 0 1 .404-1.103ZM365.82 402.417a2.733 2.733 0 0 1 .821.062c.163.048.25.114.27.196.022.081-.025.18-.148.296a1.346 1.346 0 0 1-1.528.37c-.163-.048-.25-.114-.267-.197-.02-.082.027-.18.15-.297a2.732 2.732 0 0 1 .702-.43ZM367.025 416.254a2.73 2.73 0 0 1 .821.063c.163.047.249.113.27.195.021.082-.025.18-.148.297a1.346 1.346 0 0 1-1.529.37c-.162-.049-.248-.115-.267-.197-.018-.083.028-.18.15-.297a2.733 2.733 0 0 1 .703-.43ZM361.082 403.359a2.73 2.73 0 0 1 .821.062c.162.048.249.114.27.196.021.081-.026.18-.148.296a1.346 1.346 0 0 1-1.529.37c-.162-.048-.249-.114-.267-.197-.019-.082.028-.18.15-.297a2.735 2.735 0 0 1 .703-.43ZM350.722 383.752a2.733 2.733 0 0 1 .821.062c.163.048.249.114.27.196.021.081-.025.18-.148.296a1.346 1.346 0 0 1-1.529.37c-.162-.048-.248-.114-.267-.197-.018-.082.028-.18.15-.297a2.731 2.731 0 0 1 .703-.43Z"/><ellipse cx="320.894" cy="364.917" fill="#13a497" rx="1.843" ry="4.892" transform="rotate(-84.743 320.894 364.917)"/><ellipse cx="325.887" cy="363.027" fill="#e6560f" rx="4.892" ry="1.843" transform="rotate(-68.691 325.886 363.028)"/><ellipse cx="307.457" cy="382.47" fill="#e6560f" rx="4.892" ry="1.843" transform="rotate(-68.691 307.457 382.47)"/><ellipse cx="360.204" cy="397.443" fill="#e6560f" rx="4.892" ry="1.843" transform="rotate(-68.691 360.204 397.443)"/><ellipse cx="339.006" cy="382.05" fill="#13a497" rx="1.843" ry="4.892" transform="rotate(-84.743 339.006 382.05)"/><ellipse cx="318.791" cy="402.91" fill="#e6560f" rx="1.843" ry="4.892" transform="rotate(-84.743 318.791 402.91)"/><ellipse cx="298.51" cy="402.045" fill="#13a497" rx="1.843" ry="4.892" transform="rotate(-84.743 298.51 402.045)"/><path fill="#f29e41" d="M337.927 423.358a4.683 4.683 0 0 0-.247-3.08c-.55-1.232-1.524-1.51-2.094-2.217-.778-.967-1.08-2.982 1.232-7.638 0 0 2.263-4.6 5.667-6.529a14.293 14.293 0 0 1 6.776-1.848 15.801 15.801 0 0 1 6.036 1.232 13.947 13.947 0 0 1 4.804 2.587 12.292 12.292 0 0 1 3.08 4.065c1.542 3.322 1.022 7.82.783 9.03"/><path fill="#ea7706" d="M339.66 412.621a1.383 1.383 0 0 1-1.071-.674 1.638 1.638 0 0 1-.162-1.264 1.6 1.6 0 0 1 .928-1.07 1.134 1.134 0 0 1 1.29.298 1.937 1.937 0 0 0-.304.928c.013.186.05.262.013.374a2.917 2.917 0 0 1-.222.46c-.12.218-.252.491-.472.948ZM356.584 413.689a1.12 1.12 0 0 1 1.1-.494 1.377 1.377 0 0 1 .126 2.711c-.336-.362-.504-.6-.65-.78a3.281 3.281 0 0 1-.246-.284c-.02-.03.045-.082.02-.271a2.849 2.849 0 0 0-.35-.882ZM347.626 416.974c.431-.183.654-.315.853-.407a.899.899 0 0 1 .466-.115.992.992 0 0 1 .47.197 5.692 5.692 0 0 1 .757.626 1.406 1.406 0 0 1-.542.932 1.279 1.279 0 0 1-.865.237 1.329 1.329 0 0 1-.834-.409 1.196 1.196 0 0 1-.305-1.061ZM343.766 406.195a6.561 6.561 0 0 1 1.008.36 1.84 1.84 0 0 1 .515.332 1.19 1.19 0 0 1 .27.435 4.632 4.632 0 0 0 .507.864 1.223 1.223 0 0 1-1.098.593 1.622 1.622 0 0 1-1.553-1.445 1.54 1.54 0 0 1 .351-1.14ZM354.935 408.189a1.117 1.117 0 0 1 1.097.041 1.24 1.24 0 0 1 .56.856 1.225 1.225 0 0 1-.246.979 1.191 1.191 0 0 1-1 .42c-.27-.391-.404-.613-.533-.773-.107-.158-.19-.224-.194-.297-.013-.144.162-.338.316-1.226ZM340.645 417.217a6.576 6.576 0 0 0 .931.282c.2.04.27-.02.252-.03-.015-.013-.014.083.162.192.176.118.44.228.873.463a1.268 1.268 0 0 1-.486 1.06 1.385 1.385 0 0 1-2.136-.865 1.203 1.203 0 0 1 .404-1.102ZM347.215 411.266a2.29 2.29 0 0 1 .789-.33.457.457 0 0 1 .396.08.445.445 0 0 1 .099.39 1.077 1.077 0 0 1-1.089 1.136.445.445 0 0 1-.394-.082.457.457 0 0 1-.096-.392 2.292 2.292 0 0 1 .295-.802ZM353.958 403.833a2.73 2.73 0 0 1 .821.063c.163.047.249.114.27.195.021.082-.026.18-.148.297a1.346 1.346 0 0 1-1.529.37c-.162-.048-.248-.114-.267-.197-.018-.082.028-.18.15-.297a2.731 2.731 0 0 1 .703-.43ZM361.925 410.486a2.73 2.73 0 0 1 .822.062c.162.048.248.114.27.196.02.081-.026.18-.149.296a1.346 1.346 0 0 1-1.528.37c-.163-.048-.25-.114-.267-.197-.02-.082.027-.18.15-.297a2.735 2.735 0 0 1 .702-.43ZM349.22 404.775a2.73 2.73 0 0 1 .82.063c.163.047.25.113.27.195.022.082-.025.18-.148.297a1.347 1.347 0 0 1-1.528.37c-.162-.048-.249-.114-.267-.197-.019-.082.028-.18.15-.297a2.734 2.734 0 0 1 .702-.43Z"/><ellipse cx="352.032" cy="402.91" fill="#13a497" rx="1.843" ry="4.892" transform="rotate(-84.743 352.032 402.91)"/><path fill="#78c1d0" d="M278.628 409.38h98.522v8.834a37.96 37.96 0 0 1-37.96 37.96h-22.602a37.96 37.96 0 0 1-37.96-37.96v-8.834Z"/><path fill="#e6560f" d="M278.933 416.457h97.881v3h-97.881z"/><path fill="#376f92" d="m306.023 277.408 27.527-12.525 3.081 6.771a15.121 15.121 0 0 1-7.5 20.026 15.121 15.121 0 0 1-20.026-7.5l-3.082-6.772Z"/><path fill="#e6560f" d="M309.638 157.327h-57.506l-8.66-37.69h74.826l-8.66 37.69z"/><path fill="#376f92" d="M244.423 123.777h-7.603a2.165 2.165 0 1 0 0 4.33h8.598ZM324.95 123.777h-7.603l-.995 4.33h8.598a2.165 2.165 0 1 0 0-4.33ZM247.258 135.116h67.254v2h-67.254zM256.145 221.639l27.527-12.526 3.08 6.772a15.121 15.121 0 0 1-7.5 20.026 15.121 15.121 0 0 1-20.026-7.5l-3.081-6.772ZM283.153 248.832l27.526-12.526 3.082 6.772a15.121 15.121 0 0 1-7.5 20.026 15.121 15.121 0 0 1-20.027-7.5l-3.081-6.772Z"/><path fill="#376f92" d="M282.287 168.135h1.732v43.638h-1.732zM309.534 168.135h1.732v70.284h-1.732zM332.165 168.135h1.732v99.408h-1.732zM375.146 216.41h-6.339l-2.599-48.274h11.536l-2.598 48.274z"/><circle cx="371.976" cy="238.419" r="31.772" fill="#376f92"/><path fill="#133852" d="M381.412 263.338a24.15 24.15 0 0 1-8.78 2.451 26.443 26.443 0 0 1-24.159-11.99 26.776 26.776 0 0 1-3.714-8.692c-.087-.386-.19-.768-.262-1.156l-.156-1.176a17.11 17.11 0 0 1-.223-2.353c-.01-.789-.074-1.575-.037-2.36.034-.787.12-1.568.211-2.346a26.302 26.302 0 0 1 2.858-8.845 24.46 24.46 0 0 1 5.762-7.066 30.564 30.564 0 0 0-4.426 7.687 28.308 28.308 0 0 0-1.864 8.452 27.345 27.345 0 0 0 .894 8.478 24.756 24.756 0 0 0 3.46 7.727 26.71 26.71 0 0 0 5.725 6.254 26.143 26.143 0 0 0 7.413 4.222 29.615 29.615 0 0 0 8.483 1.7 29.994 29.994 0 0 0 8.815-.987Z"/><path fill="#af2500" d="M229.961 157.327h176.675v10.808H229.961z"/><path fill="#d04719" d="M535.478 204.993c2.895 0 2.9-4.5 0-4.5-2.896 0-2.9 4.5 0 4.5ZM537.404 230.809c2.896 0 2.9-4.5 0-4.5-2.895 0-2.9 4.5 0 4.5Z"/><path fill="#fd8b66" d="M565.518 387.273a60.206 60.206 0 0 0 3.792 5.388c8.961 12.016.892 34.92.892 34.92s-15.442 11.328-17.209 14.965-6.963 16.836-6.547 19.33 6.443-.831 8.002-4.26 3.326-4.158 7.587-2.703 13.51 4.053 13.51 4.053l.642-9.353s24.53-17.027 29.806-44.509c2.079-10.825-13.521-39.256-13.521-39.256Z"/><path fill="#d04719" d="M569.854 393.685a14.979 14.979 0 0 1 5.48-3.796 18.398 18.398 0 0 1 6.61-1.442 19.976 19.976 0 0 1 6.679.998l.803.25.773.333 1.528.685c.982.527 1.922 1.13 2.837 1.74-1.072-.316-2.08-.732-3.116-1.058l-1.566-.436-.773-.228-.791-.156a44.47 44.47 0 0 1-1.572-.318c-.527-.08-1.06-.119-1.586-.181l-.79-.098-.795-.02c-.529 0-1.059-.052-1.586-.013a23.134 23.134 0 0 0-6.253 1.038 24.115 24.115 0 0 0-5.882 2.702ZM568.888 392.182a20.499 20.499 0 0 1 3.19-5.407 23.258 23.258 0 0 1 4.607-4.366 18.094 18.094 0 0 1 5.768-2.725 14.949 14.949 0 0 1 6.29-.325 26.398 26.398 0 0 0-5.931 1.44 12.817 12.817 0 0 0-1.38.59 11.097 11.097 0 0 0-1.34.666l-1.305.734-1.24.846a42.16 42.16 0 0 0-8.66 8.547Z"/><path fill="#78c1d0" d="M528.631 455.281a12.61 12.61 0 0 0 23.915 7.45c-2.158.58-22.468-5.746-23.915-7.45Z"/><path fill="#376f92" d="m419.096 321.342 2.158-2.084 36.207 37.492-2.158 2.084zM559.343 384.349l32.691-27.699 1.94 2.29-32.692 27.698z"/><path fill="#af2500" d="m558.91 382.061 5.307-38.245-2.078 46.143-3.229-7.898z"/><path fill="#e6560f" d="M471.611 369.553c3.86 0 3.867-6 0-6-3.86 0-3.867 6 0 6ZM491.291 346.513c3.86 0 3.867-6 0-6-3.86 0-3.867 6 0 6ZM510.011 324.433c3.86 0 3.867-6 0-6-3.86 0-3.867 6 0 6ZM529.691 303.793c3.86 0 3.867-6 0-6-3.86 0-3.867 6 0 6ZM548.891 295.633c3.86 0 3.867-6 0-6-3.86 0-3.867 6 0 6ZM528.731 324.913c3.86 0 3.867-6 0-6-3.86 0-3.867 6 0 6ZM509.051 347.953c3.86 0 3.867-6 0-6-3.86 0-3.867 6 0 6ZM489.851 372.913c3.86 0 3.867-6 0-6-3.86 0-3.867 6 0 6ZM467.771 394.993c3.86 0 3.867-6 0-6-3.86 0-3.867 6 0 6ZM495.131 396.913c3.86 0 3.867-6 0-6-3.86 0-3.867 6 0 6ZM512.411 370.513c3.86 0 3.867-6 0-6-3.86 0-3.867 6 0 6ZM531.611 343.153c3.86 0 3.867-6 0-6-3.86 0-3.867 6 0 6ZM549.371 318.673c3.86 0 3.867-6 0-6-3.86 0-3.867 6 0 6ZM531.131 368.113c3.86 0 3.867-6 0-6-3.86 0-3.867 6 0 6ZM516.251 398.833c3.86 0 3.867-6 0-6-3.86 0-3.867 6 0 6ZM461.051 442.033c3.86 0 3.867-6 0-6-3.86 0-3.867 6 0 6Z"/><path fill="#ffc68d" d="M643.552 309.43h43.995v4h-43.995zM643.552 327.804h43.995v4h-43.995zM643.552 346.178h43.995v4h-43.995zM643.552 364.553h43.995v4h-43.995zM643.552 382.927h43.995v4h-43.995zM643.552 401.301h43.995v4h-43.995zM643.552 419.675h43.995v4h-43.995z"/><path fill="#ffc68d" d="M660.961 311.43h4v18.374h-4zM675.712 329.804h4v18.375h-4zM656.044 348.178h4v18.375h-4zM666.914 366.553h4v18.374h-4zM645.951 384.927h4v18.375h-4zM675.712 384.927h4v18.375h-4zM656.044 403.301h4v18.374h-4zM218.039 247.262h43.995v4h-43.995zM218.039 265.636h43.995v4h-43.995zM218.039 284.011h43.995v4h-43.995zM218.039 302.385h43.995v4h-43.995zM218.039 320.759h43.995v4h-43.995zM218.039 339.133h43.995v4h-43.995zM218.039 357.508h43.995v4h-43.995z"/><path fill="#ffc68d" d="M235.448 249.262h4v18.374h-4zM250.2 267.636h4v18.375h-4zM230.531 286.011h4v18.374h-4zM241.401 304.385h4v18.375h-4zM220.438 322.759h4v18.374h-4zM250.2 322.759h4v18.374h-4zM230.531 341.133h4v18.375h-4z"/></svg>