<svg xmlns="http://www.w3.org/2000/svg" data-name="Layer 1" viewBox="0 0 1400 1000"><defs><linearGradient id="a" x1="311.38" x2="308.57" y1="890.7" y2="813.84" gradientUnits="userSpaceOnUse"><stop offset="0" stop-color="#fff" stop-opacity="0"/><stop offset=".01" stop-color="#fcfdfe" stop-opacity=".02"/><stop offset=".14" stop-color="#d1ddef" stop-opacity=".27"/><stop offset=".28" stop-color="#acc2e1" stop-opacity=".5"/><stop offset=".43" stop-color="#8eacd6" stop-opacity=".68"/><stop offset=".57" stop-color="#769ace" stop-opacity=".82"/><stop offset=".71" stop-color="#658ec8" stop-opacity=".92"/><stop offset=".85" stop-color="#5b86c4" stop-opacity=".98"/><stop offset="1" stop-color="#5884c3"/></linearGradient></defs><rect width="166.45" height="119.73" x="317.32" y="160.43" fill="#f0f3f8" rx="3" transform="rotate(90 400.545 220.285)"/><path fill="#f0f3f8" d="M1120.55,343.77H925.07a5,5,0,0,1-5-5V171.24a5,5,0,0,0-5-5h-401a5,5,0,0,0-5,5V338.77a5,5,0,0,1-5,5H308.64a5,5,0,0,0-5,5V693.83a5,5,0,0,0,5,5H504.22a5,5,0,0,1,5,5V871.37a5,5,0,0,0,5,5h401a5,5,0,0,0,5-5V703.83a5,5,0,0,1,5-5h195.37a5,5,0,0,0,5-5V348.77A5,5,0,0,0,1120.55,343.77Z"/><rect width="166.45" height="119.73" x="948.46" y="188.43" fill="#f0f3f8" rx="3"/><path fill="#a8b9df" d="M307.74 745.31c-1.21 0-2.61-1.34-6.21-11.78-7.23-21-10.85-31.55-8.06-44 1.15-5.12 3.45-10 8.06-19.85 3.74-8 5.46-10.25 8.07-16.74 4.09-10.22 3.5-13.69 5.58-19.23 7.3-19.5 34.26-29 36.59-26 1 1.25-2.86 4.19-8.68 14.89A101.57 101.57 0 00334.4 643c-4.19 14.94.9 16.59-3.1 32.25-2 7.73-3.38 8-7.44 21.71-2 6.73-2.11 8.22-4.34 16.74C314.2 734 311.25 745.32 307.74 745.31zM285.41 719.26c-2.2 1.76-7.87-5.64-27.29-17.36-13.21-8-29.74-16.12-31-16.74-12.88-6.33-16-7.06-20.46-11.79-5.71-6-4.33-8.5-12.4-19.84-6.26-8.79-8.17-8.81-13-16.75-4.14-6.77-9-16.93-6.82-18.6 1-.79 3.24.54 7.44 3.1 6.3 3.82 7.82 6.05 11.79 8.68 7 4.63 8.44 1.86 15.5 6.2 2.84 1.75 6 5.09 12.4 11.79s6.5 7.43 9.93 10.54c4.9 4.45 8.8 6.66 13 9.3a196.94 196.94 0 0122.33 16.12C281.43 696.79 288.64 716.7 285.41 719.26z"/><path fill="#899fca" d="M178.93,624.6c7.42,7.27,14.76,14.5,22.35,21.47,1.88,1.76,3.8,3.47,5.71,5.19s3.83,3.44,5.77,5.13l11.69,10.07a269.77,269.77,0,0,0,24.22,19.25c4.25,2.94,8.64,5.67,13,8.48a120.92,120.92,0,0,1,12.77,9.13,61.15,61.15,0,0,1,10.71,11.77A76.35,76.35,0,0,1,292.84,729c4.2,9.81,6.55,20.17,8.31,30.41.87,5.14,1.62,10.27,2.31,15.41.34,2.56.69,5.15,1,7.74s.54,5.19.76,7.78a218.29,218.29,0,0,1,.41,31.21h-.5c-1-10.33-2.22-20.58-3.82-30.75-.8-5.1-1.68-10.13-2.63-15.23l-2.77-15.23c-1.9-10.1-3.79-20.16-7.44-29.56a83.86,83.86,0,0,0-6.66-13.55,63.63,63.63,0,0,0-9.2-11.95,84.62,84.62,0,0,0-11.86-9.73c-4.24-3-8.6-5.75-13-8.55-8.73-5.59-17.65-11-25.95-17.35-4.14-3.16-8.17-6.48-12-10-1.93-1.76-3.83-3.53-5.72-5.33s-3.71-3.66-5.53-5.53a200.55,200.55,0,0,1-20-23.92Z"/><path fill="#c4cfe6" d="M271.74,738.41c-.65,1.69-6.88-1.38-16.47,1.59-7,2.17-7.51,5-16.91,9.66-6.76,3.35-11.49,5.7-17.66,5.81-7.88.13-9.86-3.53-21.64-6.61a79.2,79.2,0,0,0-18.45-2.43c-19.56-.68-29.82,5.69-31.63,2.72-2-3.23,7.82-14.6,19.84-22.41,25.25-16.42,53.14-12.49,57.23-11.86C252.49,719,273,735.21,271.74,738.41Z"/><path fill="#a4b5dd" d="M155.08,744.15a37.64,37.64,0,0,1,10.16-6.86c.93-.44,1.89-.83,2.84-1.25s1.95-.68,2.93-1,2-.56,3-.85,2-.42,3.06-.63a49.12,49.12,0,0,1,12.47-.62,29.86,29.86,0,0,1,3.11.34l1.55.22.77.11.7.12c1.86.34,3.79.57,5.72.74a140.46,140.46,0,0,0,23.83,0c8-.68,15.91-2,24-2.84a62.88,62.88,0,0,1,12.37-.24,24.4,24.4,0,0,1,6.38,1.5,13.14,13.14,0,0,1,5.77,4.24,66.91,66.91,0,0,1,6.83,10.42,45.63,45.63,0,0,1,4,12l.49,3.08c.17,1,.23,2.06.34,3.08.24,2,.31,4.09.41,6.14s.07,4.06.1,6.1L285.7,784a239.6,239.6,0,0,1-2.24,24.09l-.5,0c-.54-8.05-.76-16.07-1.2-24a171.28,171.28,0,0,0-2.49-23.47,50.49,50.49,0,0,0-3.44-10.79,67.05,67.05,0,0,0-5.95-9.93c-1.65-2.53-5.24-3.81-8.91-4.54a69.48,69.48,0,0,0-11.66-1A178.3,178.3,0,0,0,225.38,736l-12,1.66a86.8,86.8,0,0,1-12.22.9c-1,0-2.07,0-3.11-.14-.53,0-1-.07-1.57-.12l-1.56-.22L192,737.7c-1-.11-1.9-.35-2.87-.38l-2.87-.23c-1-.05-1.92,0-2.89,0-.48,0-1,0-1.44,0l-1.44.08c-1,.06-1.94.07-2.89.22a56.32,56.32,0,0,0-22.21,7.18Z"/><path fill="#c4cfe6" d="M286,636.78c-3.31.29-7.59-11.79-9.3-21.7-2-11.63.49-14.67,0-33.49a169.81,169.81,0,0,0-1.86-22.33c-2.15-13.91-4.75-17.56-6.82-27.29-5-23.43.63-46.41,3.72-46.51,1.53,0,1.94,5.55,5.58,14.89,3.48,8.92,6.44,11.22,15.5,26,6.41,10.48,9.61,15.72,10.55,18.61,3.45,10.71,1.81,20-.62,32.87-2.79,14.75-5.25,14.93-9.93,34.11C288.78,628.64,288.67,636.55,286,636.78Z"/><path fill="#a4b5dd" d="M272,496.56c4.34,13,8.48,26.1,13.33,38.82q.9,2.39,1.87,4.74l.48,1.19.48,1.31a26.06,26.06,0,0,1,.77,2.67,47.26,47.26,0,0,1,1,10.73,100.17,100.17,0,0,1-.74,10.45c-.36,3.44-.9,6.84-1.38,10.23-1,6.78-2.08,13.5-2.74,20.28a114.89,114.89,0,0,0-.3,20.4,90.62,90.62,0,0,0,1.38,10.11c.34,1.65.63,3.37.94,5.06l.46,2.55.24,1.28.16,1.28a192.6,192.6,0,0,1,1.75,20.63c.14,6.89.18,13.81-.15,20.68s-.75,13.73-1.17,20.56-.79,13.64-.85,20.41c-.07,3.39,0,6.75.11,10.12l.36,5c.09,1.67.42,3.3.59,5,2,13.39,4.91,26.83,7.14,40.4,1.13,6.79,2.11,13.63,2.67,20.51.31,3.44.44,6.9.51,10.34,0,1.73,0,3.45,0,5.17s-.15,3.45-.22,5.16h-.5c-1.53-27.46-10.39-53.42-14.88-80.79a111.9,111.9,0,0,1-1-21c.06-3.48.33-6.92.52-10.37s.52-6.88.84-10.29l1.88-20.47c.63-6.81,1.14-13.6,1.41-20.42l.06-5.11c0-.85,0-1.71,0-2.56l-.08-2.55c-.07-1.7-.06-3.41-.2-5.11l-.48-5.08c-.11-1.7-.47-3.37-.73-5s-.55-3.35-.88-5.06-.59-3.4-.87-5.1-.48-3.42-.63-5.14c-1.47-13.73-.93-27.7.52-41.35.69-6.82,1.59-13.59,1.82-20.25a42.3,42.3,0,0,0-.69-9.73c-.17-.77-.35-1.54-.58-2.29l-.36-1.11-.43-1.21c-.61-1.63-1.18-3.26-1.73-4.9-1.12-3.27-2.11-6.58-3.07-9.89s-1.85-6.63-2.69-10c-1.68-6.67-3.19-13.38-4.41-20.16Z"/><path fill="#c4cfe6" d="M344.22,739c-.74-4.51,11.63-12.22,23.56-13,1.28-.09,1.56,0,18,1.86,13.48,1.54,15,1.7,16.74,1.86,16.53,1.5,14.64,0,19.85,1.24,10.33,2.54,10.22,6.77,24.8,11.78,5.6,1.92,8.61,2.33,8.69,3.72.14,2.59-10.05,5.1-22.33,8.06-15.17,3.66-22.75,5.49-28.53,5-11-1-11.45-5.3-27.91-11.17C356.57,741,344.91,743.26,344.22,739Z"/><path fill="#a4b5dd" d="M339.43,805.46a100.45,100.45,0,0,1-3.86-11c-.55-1.87-1.06-3.75-1.51-5.64s-.91-3.79-1.27-5.71-.72-3.84-1-5.77-.51-3.89-.69-5.84a61.69,61.69,0,0,1-.11-11.85,39,39,0,0,1,2.78-11.71,20.27,20.27,0,0,1,3.19-5.26,14.7,14.7,0,0,1,2.25-2.14,14.2,14.2,0,0,1,2.7-1.55,17.37,17.37,0,0,1,2.9-.87c.94-.23,1.88-.44,2.82-.69l5.66-1.32a114.44,114.44,0,0,1,11.53-2.17,46,46,0,0,1,12,0,62.28,62.28,0,0,1,11.58,2.88l2.77,1c.93.32,1.78.58,2.67.88s1.78.54,2.68.79,1.8.51,2.72.71c3.65.91,7.38,1.64,11.1,2.37q11.2,2.09,22.61,3.26c3.8.33,7.61.68,11.42.78a77.19,77.19,0,0,0,11.47-.35l.12.48a50.05,50.05,0,0,1-11.48,2.42l-2.93.3-2.93.16c-1.95.12-3.9.13-5.86.15-3.91,0-7.82-.17-11.71-.52s-7.77-.82-11.64-1.42a106.72,106.72,0,0,1-11.51-2.58c-1-.24-1.9-.56-2.85-.86s-1.89-.59-2.83-1-1.91-.71-2.78-1.07l-2.65-1.06c-7.05-2.76-14.18-4.69-21.76-4.61a66.33,66.33,0,0,0-11.37,1.1c-1.9.29-3.76.75-5.64,1.14l-2.81.68a13.68,13.68,0,0,0-2.6.87,10.63,10.63,0,0,0-4,3.48,16.38,16.38,0,0,0-2.21,4.93,43.32,43.32,0,0,0-1.23,11c0,3.73.16,7.49.37,11.27.12,1.89.29,3.78.49,5.67s.39,3.79.63,5.69c.91,7.58,2.14,15.16,3.29,22.83Z"/><path fill="#dde6f4" d="M330.06,719.88c-2.23-1.17,2.49-16.51,9.93-30.38,4.94-9.24,9.83-18.35,19.84-26.67,12.39-10.29,25.65-13.57,36-16.13,16.63-4.11,18.84-.87,30.39-5.58C443,634.28,449.29,623,452.24,625s-.47,16.63-9.93,25.43c-5.52,5.14-12.81,8.08-17.36,9.92-8.82,3.56-12.42,3.07-16.75,7.44-2.69,2.72-2.09,3.71-6.82,11.16-3.85,6.07-5.87,9.26-8.68,11.79-4.92,4.42-8.53,3.46-22.95,6.82-12,2.8-18,4.2-24.18,8.06C335,712.25,331.75,720.77,330.06,719.88Z"/><path fill="#a4b5dd" d="M445,636.78a8.5,8.5,0,0,1-1.76,4.38c-.49.6-.93,1.28-1.47,1.83s-1.08,1.12-1.63,1.68a49,49,0,0,1-7.43,5.5,90.27,90.27,0,0,1-8.07,4.42q-2.07,1-4.17,1.89c-1.39.64-2.81,1.19-4.23,1.74L412,659.89c-1.43.53-2.88,1-4.32,1.47-2.88,1-5.75,2-8.69,2.74-5.82,1.76-11.76,3-17.69,4.24l.16,0c-1.74.52-3.58,1.2-5.34,1.92s-3.54,1.5-5.28,2.35-3.43,1.76-5.11,2.71-3.31,2-4.91,3.1A69.07,69.07,0,0,0,338,704.08a69.7,69.7,0,0,0-4.32,10.58c-.27.91-.6,1.8-.83,2.73l-.71,2.75c-.43,1.87-.8,3.76-1.2,5.64-.19,1-.42,1.88-.58,2.83l-.48,2.85c-.3,1.91-.66,3.8-.92,5.72-.46,3.84-1.05,7.66-1.38,11.52l-.59,5.78-.51,5.8-.25,2.9c-.06,1-.13,1.94-.22,2.9l-.47,5.81-.76,11.64c-.95,15.53-1.63,31.11-2.32,46.74H322A391.25,391.25,0,0,1,320,783.34a297.4,297.4,0,0,1,4.15-46.93c.33-1.94.77-3.87,1.14-5.81l.59-2.9c.19-1,.47-1.93.71-2.89.5-1.92,1-3.84,1.5-5.76l.95-2.86c.3-1,.71-1.88,1.06-2.81a73.8,73.8,0,0,1,12.44-20.3A102.83,102.83,0,0,1,359.87,677c1.56-1.2,3.18-2.32,4.82-3.42s3.29-2.19,5-3.2,3.41-2,5.17-2.94,3.53-1.78,5.47-2.57l.16,0c2.88-.85,5.75-1.73,8.65-2.52,1.44-.4,2.89-.81,4.32-1.26l4.31-1.25,4.31-1.24,4.28-1.33c1.42-.46,2.87-.87,4.27-1.36l4.24-1.44c2.86-.89,5.57-2.1,8.38-3.1,2.73-1.15,5.48-2.3,8.12-3.64.66-.33,1.35-.62,2-1l1.92-1.1c1.32-.68,2.48-1.56,3.73-2.36l1.72-1.36c.59-.45,1.06-1,1.6-1.49a8.56,8.56,0,0,0,2.23-3.58Z"/><path fill="#899fca" d="M338.86,618.9a38.25,38.25,0,0,0-8.47,9.66c-.6.88-1.1,1.83-1.63,2.76s-1,1.89-1.47,2.84-.9,1.93-1.31,2.92l-.62,1.46-.55,1.51a79.28,79.28,0,0,0-3.38,12.34c-.76,4.15-1.43,8.61-2.39,12.91s-2.09,8.61-3.32,12.86-2.52,8.47-3.65,12.7a97.89,97.89,0,0,0-2.53,12.87c-.14,1.08-.27,2.17-.37,3.26a32.54,32.54,0,0,0-.19,3.25c0,1.08-.09,2.14,0,3.23l.15,3.27c.22,4.35.66,8.71,1.05,13.07l1.21,13.09c.82,8.73,1.86,17.44,2.66,26.17s1.58,17.48,2.3,26.23l1.1,13.13c.23,2.18.36,4.38.6,6.56l.31,3.28.42,3.26-.49.13-1-3.18-.85-3.21c-.56-2.15-1-4.3-1.5-6.46-.92-4.32-1.73-8.66-2.47-13s-1.43-8.7-2-13.07-1.17-8.73-1.67-13.11c-1-8.76-1.6-17.55-2.07-26.36a246.83,246.83,0,0,1-.28-26.52l.18-3.33c.07-1.11.24-2.24.34-3.35.06-.56.1-1.12.18-1.67l.27-1.64c.16-1.09.35-2.18.54-3.27.74-4.36,1.68-8.69,2.64-13l1.36-6.46c.41-2.16.82-4.32,1.17-6.48.71-4.33,1.29-8.66,1.91-13s1.16-8.6,2.15-13.07c.19-1.11.51-2.19.8-3.29s.55-2.19.91-3.26l1.12-3.21c.36-1.07.87-2.09,1.3-3.14l.67-1.56.79-1.51c.53-1,1-2,1.66-3a41.21,41.21,0,0,1,3.91-5.56,30.46,30.46,0,0,1,10.38-8.53Z"/><path fill="#dde6f4" d="M272.73,703.14c5.13-2.13,3-18.73,1.86-27.91C272.91,662,270.41,660,267.15,643c-1.34-6.92-2.13-13.92-3.72-27.9-2.3-20.21-2.14-23.68-3.11-31-4-30.87-18.76-60.09-24.18-58.92-2,.44-2.6,5.26-3.72,14.89-1.43,12.24,2.76,16.23.62,25.42-1.2,5.14-2.25,3.63-6.2,13-4.54,10.77-8,18.88-5.59,27.28,1.44,5.1,3.55,5.14,5.59,12.41,1.47,5.28,1,7.73,1.86,13,.62,4.13,1.67,7.81,5.58,17.37,6.25,15.27,9.38,22.91,13.64,29.76C253.19,686.8,266.66,705.66,272.73,703.14Z"/><path fill="#a4b5dd" d="M236.36,525a62.29,62.29,0,0,1,4.07,9,86.31,86.31,0,0,1,2.91,9.47,92,92,0,0,1,1.95,9.73c.26,1.64.42,3.29.63,4.94s.26,3.31.38,5,.1,3.32.15,5,0,3.32-.08,5l-.44,9.77c-.11,3.24-.21,6.47-.26,9.7s0,6.43.16,9.64a186,186,0,0,0,1.9,19.29c.92,6.45,2.08,12.87,3.34,19.28.69,3.19,1.24,6.42,2.14,9.53.43,1.56.79,3.14,1.28,4.68s1.07,3.06,1.63,4.59c.28.75.52,1.53.84,2.27l1,2.24,2,4.45c1.44,2.92,2.82,5.85,4.32,8.76l4.45,8.75c.73,1.46,1.49,2.91,2.19,4.4l2.09,4.47c1.45,2.95,2.61,6,3.89,9.08l.94,2.29c.31.76.56,1.55.84,2.33l1.65,4.66c1.17,3.1,2.06,6.28,3,9.44l1.4,4.76c.41,1.59.77,3.2,1.16,4.81l1.14,4.82c.35,1.61.77,3.21,1,4.84l1.68,9.74.4,2.44c.12.82.19,1.64.29,2.46l.54,4.9c.35,3.27.78,6.54,1,9.82.33,6.56.85,13.12.92,19.68l0,9.83c0,3.28.07,6.56-.15,9.83s-.33,6.55-.51,9.81-.36,6.54-.6,9.8h-.5c-.21-3.27-.36-6.53-.51-9.8s-.33-6.52-.43-9.77c-.32-6.52-.89-13-1.25-19.5-.14-3.25-.59-6.48-.89-9.71l-.92-9.7c-.14-1.62-.44-3.21-.63-4.82l-.64-4.82-.64-4.82c-.12-.8-.2-1.6-.34-2.4l-.44-2.39L282.75,743c-.24-1.6-.64-3.17-1-4.74l-1-4.74c-.34-1.58-.66-3.16-1-4.74l-1.26-4.67c-.84-3.11-1.6-6.26-2.66-9.31-3.83-12.34-8.9-24.27-14.05-36.3-1.32-3-2.54-6.05-3.82-9.06l-1.73-4.62-.9-2.29c-.29-.77-.51-1.56-.77-2.34-.51-1.57-1-3.14-1.54-4.69s-.83-3.19-1.25-4.78c-.86-3.19-1.53-6.37-2.24-9.56L245,622a145.87,145.87,0,0,1-3.34-19.51,132.55,132.55,0,0,1-.17-19.82l.62-9.8c.06-1.6.22-3.2.25-4.8s.06-3.21.05-4.81l-.15-4.82c-.11-1.6-.16-3.21-.32-4.81s-.28-3.21-.53-4.8-.4-3.2-.69-4.79c-.53-3.18-1.17-6.35-2-9.49a84,84,0,0,0-2.85-9.31Z"/><path fill="#dde6f4" d="M297.47,666.55c-3.51-.85-3.42-15.07-1.86-24.81a77,77,0,0,1,8.68-24.8c4-7.11,6-7.68,9.31-14.89,3.73-8.06,2.6-10.13,5.58-17.36,3.25-7.9,5.4-7.38,14.26-20.47,6.64-9.8,10.16-15,12.41-22.94,2.86-10.13,1.52-17.17,3.1-17.37,1.74-.22,5.66,8.12,5.58,17.37,0,5.07-1.27,6.9-6.2,21.7-3.47,10.41-5.21,15.68-5.59,19.23-.91,8.77,1.28,10.79.63,20.46-.25,3.57-.73,10.7-3.73,17.37-5.69,12.67-14.93,11.33-27.28,25.42C302.07,657.21,300.48,667.27,297.47,666.55Z"/><path fill="#a4b5dd" d="M350.43,535.63a25.42,25.42,0,0,1-.43,9.29,73.9,73.9,0,0,1-2.39,8.93c-.93,2.94-2,5.81-3.21,8.65l-1.81,4.24c-.61,1.41-1.3,2.77-2,4.16-1.29,2.79-2.73,5.49-4.13,8.22s-3,5.34-4.46,8-3.14,5.25-4.73,7.86l-4.69,7.71a169.61,169.61,0,0,0-15.31,32.77A174.11,174.11,0,0,0,302.49,653l-.95,4.45-.78,4.48c-.56,3-.92,6-1.39,9-.76,6-1.32,12-1.78,18.06-.19,3-.42,6-.54,9-.07,1.54-.13,2.94-.06,4.36a34.89,34.89,0,0,0,.47,4.26c2,12,3.67,24.12,4.93,36.26s2.09,24.33,2.32,36.55S304.62,804,302.58,816l-.5-.06c.17-6.09.18-12.13-.15-18.19-.05-1.51-.11-3-.23-4.54l-.26-4.53c-.18-3-.47-6.05-.66-9.07q-1.54-18.11-3.69-36.18c-1.35-12.05-2.74-24.11-4.3-36.14a38.22,38.22,0,0,1-.38-4.82,43.18,43.18,0,0,1,.22-4.76c.26-3.07.57-6.12,1-9.16.77-6.08,1.89-12.11,3.07-18.11s2.64-11.93,4.17-17.84S304,640.83,305.77,635c3.55-11.67,7.48-23.35,13.21-34.3,1.5-2.67,3-5.45,4.54-8l4.7-7.76c3.07-5.21,6.11-10.43,9-15.75s5.55-10.71,7.94-16.23c1.19-2.76,2.26-5.57,3.19-8.43l.63-2.16c.2-.72.35-1.45.53-2.18a17.44,17.44,0,0,0,.47-4.4Z"/><path fill="#dde6f4" d="M363.81,610.32c18.52-12.6,20-13,24.19-17.36,9.79-10.17,7.76-14.13,16.74-23.57,11.69-12.28,28.67-19.79,32.25-16.12,1.87,1.91-1.15,5.56-7.44,24.18-4.78,14.18-4,15.06-6.82,19.23-4,6.06-9.72,9.62-21.09,16.74-10.44,6.55-13.41,6.84-18.6,12.41-3.09,3.31-3.24,4.5-8.68,11.16a129.49,129.49,0,0,1-11.17,12.4c-6.87,6.49-12.85,16-25.11,15C335.64,664.15,342.22,625,363.81,610.32Z"/><path fill="#a4b5dd" d="M427.29,563.94a96.56,96.56,0,0,1-12.1,17.15,105,105,0,0,1-7.32,7.6c-1.25,1.24-2.61,2.37-3.92,3.56s-2.74,2.23-4.11,3.34l-4.26,3.13-2,1.52c-.68.5-1.35,1-2,1.56l-1.93,1.62c-.65.53-1.23,1.14-1.84,1.71-1.25,1.12-2.35,2.39-3.49,3.61-2.18,2.55-4.23,5.22-6.19,8s-3.91,5.71-6,8.55a62.67,62.67,0,0,1-7.11,8,64.92,64.92,0,0,1-8.39,6.62,34.58,34.58,0,0,0-7.31,6.86,69.87,69.87,0,0,0-5.77,8.51,102.22,102.22,0,0,0-4.68,9.22c-1.36,3.18-2.71,6.37-3.81,9.64a175.35,175.35,0,0,0-5.62,20c-1.49,6.75-2.63,13.56-3.59,20.39s-1.7,13.67-2.17,20.54-.66,13.75-.56,20.62c.09,3.43.17,6.87.34,10.29s.46,6.83.7,10.32c.93,13.87,1.8,27.75,2.45,41.63s1.19,27.79,1.43,41.69l-.5,0c-1.86-13.8-3.44-27.62-4.86-41.44s-2.67-27.66-3.83-41.5c-.55-6.91-1-14-.95-21s.4-14,1.07-21,1.61-13.93,2.92-20.82,3-13.68,4.9-20.4,4.2-13.34,6.68-19.86a158.83,158.83,0,0,1,8.67-19.08,80.82,80.82,0,0,1,5.56-9A38.61,38.61,0,0,1,355,637.7a62.76,62.76,0,0,0,13.72-14.82c2-2.79,3.75-5.74,5.75-8.64a77.1,77.1,0,0,1,6.55-8.45c1.25-1.3,2.45-2.63,3.81-3.82.67-.6,1.31-1.24,2-1.8l2.09-1.69c.69-.58,1.43-1.09,2.16-1.59l2.21-1.53,4.25-2.88a134.1,134.1,0,0,0,29.32-28.8Z"/><path fill="#b2c2e3" d="M351.88,790.28l-1,8.66v0l-8.6,72.59a5.45,5.45,0,0,1-5.42,4.82H285.08a5.45,5.45,0,0,1-5.41-4.82l-2.8-23.61-6.82-57.66a5.45,5.45,0,0,1,5.41-6.1h71A5.46,5.46,0,0,1,351.88,790.28Z"/><path fill="url(#a)" d="M346.49,832.18s-4.1,0-11.7-.4a53.81,53.81,0,0,1-50.56-47.44l0-.16h-8.75a5.45,5.45,0,0,0-5.41,6.1l6.82,57.66,2.8,23.61a5.45,5.45,0,0,0,5.41,4.82h51.76a5.45,5.45,0,0,0,5.42-4.82l4.67-39.39Z" opacity=".47"/><path fill="#fff" d="M320.62 784.18l-33.27 92.19h-2.27a5.45 5.45 0 01-5.41-4.82l-2.8-23.61 23-63.76zM351.88 790.28l-1 8.66v0l-27.94 77.41H294.13l33.27-92.19h19.06A5.46 5.46 0 01351.88 790.28z" opacity=".49"/><g><line x1="350.64" x2="350.64" y1="168.1" y2="267.18" fill="none" stroke="#b2c0d6" stroke-miterlimit="10" stroke-width="3"/><rect width="11.96" height="31.24" x="343.6" y="267.18" fill="#3e5fab" rx="2"/><path fill="#c4cfe6" d="M360,312.15V290.42a2,2,0,0,0-2-2H341.17a2,2,0,0,0-2,2v21.73a19.09,19.09,0,1,0,20.82,0Z"/><line x1="300.01" x2="300.01" y1="137.06" y2="228.08" fill="none" stroke="#b2c0d6" stroke-miterlimit="10" stroke-width="3"/><rect width="11.96" height="31.24" x="294.03" y="228.08" fill="#3e5fab" rx="2"/><rect width="21.8" height="56.95" x="289.11" y="249.32" fill="#d0d9ea" rx="2"/><line x1="253.68" x2="253.68" y1="181.81" y2="328.54" fill="none" stroke="#b2c0d6" stroke-miterlimit="10" stroke-width="3"/><rect width="11.96" height="31.24" x="247.71" y="328.54" fill="#3e5fab" rx="2"/><path fill="#c4cfe6" d="M264.1,373.52V351.78a2,2,0,0,0-2-2H245.27a2,2,0,0,0-2,2v21.74a19.09,19.09,0,1,0,20.83,0Z"/><path fill="#a8b9df" d="M356.48 337.3a17.62 17.62 0 01-17.62-17.62v-7.31a19.08 19.08 0 1027.47 24.93zM260.58 398.75A17.62 17.62 0 01243 381.13v-7.31a19.08 19.08 0 1027.47 24.93z"/><path fill="#b2c0d6" d="M299,249.32c0,5.69-6,5.69-6,11.38s6,5.7,6,11.39-6,5.7-6,11.39,6,5.7,6,11.39-6,5.7-6,11.4h-1.92a2,2,0,0,1-2-2V251.32a2,2,0,0,1,2-2Z"/></g><g><rect width="239.76" height="319.91" x="730.39" y="123.63" fill="#a4b5dd"/><rect width="214.36" height="293.14" x="744.19" y="136.52" fill="#e8ebf6"/><polygon fill="#fff" points="899.34 136.52 807.87 429.66 753.91 429.66 845.39 136.52 899.34 136.52" opacity=".43"/><polygon fill="#fff" points="939.32 136.52 847.84 429.66 827.12 429.66 918.6 136.52 939.32 136.52" opacity=".43"/><rect width="227.7" height="9" x="735.91" y="203.43" fill="#a4b5dd"/><rect width="227.7" height="9" x="737.09" y="279.09" fill="#a4b5dd"/><rect width="227.7" height="9" x="738.26" y="354.75" fill="#a4b5dd"/><line x1="851.37" x2="851.37" y1="135.52" y2="432.77" fill="none" stroke="#a4b5dd" stroke-miterlimit="10" stroke-width="12"/></g><g><rect width="245.16" height="22.71" x="1006.12" y="621.2" fill="#a7b8de" rx="3"/><rect width="216.67" height="213.97" x="1020.37" y="643.91" fill="#a7b8de" rx="3"/><rect width="245.16" height="22.71" x="978.54" y="621.2" fill="#c4cee5" rx="3"/><path fill="#e6eaf5" d="M1206.75,646.91v208a3,3,0,0,1-3,3h-208a3,3,0,0,1-3-3v-208a3,3,0,0,1,3-3h208a3,3,0,0,1,3,3Z"/><path fill="#c4cee5" d="M1009.59,876.37h-5.16a2.69,2.69,0,0,1-2.69-2.69V857.87h18.49l-8.22,17A2.69,2.69,0,0,1,1009.59,876.37Z"/><path fill="#a7b8de" d="M1039.91,876.37h-5.16a2.69,2.69,0,0,1-2.69-2.69V857.87h18.49l-8.22,17A2.69,2.69,0,0,1,1039.91,876.37Z"/><path fill="#c4cee5" d="M1194.93,876.37h5.17a2.7,2.7,0,0,0,2.69-2.69V857.87h-18.5l8.23,17A2.66,2.66,0,0,0,1194.93,876.37Z"/><path fill="#a7b8de" d="M1225.45,876.37h5.17a2.69,2.69,0,0,0,2.68-2.69V857.87h-18.49l8.22,17A2.69,2.69,0,0,0,1225.45,876.37Z"/><rect width="84.56" height="169.2" x="1008.54" y="666.29" fill="#c4cee5" rx="4"/><rect width="84.56" height="169.2" x="1106.43" y="666.29" fill="#c4cee5" rx="4"/><polygon fill="#f2f6fb" points="1108.88 643.91 1052.47 857.88 1007.79 857.88 1064.21 643.91 1108.88 643.91" opacity=".42"/><path fill="#f2f6fb" d="M1204.91,644.14l-56.36,213.74h-73l56.41-214h71.79A3,3,0,0,1,1204.91,644.14Z" opacity=".42"/></g><g data-name="Robot\Leg\Side"><path fill="#838383" d="M448.54,529.44c-.17-2.08-1.74-2-1.91-4s1.39-2.21,1.22-4.3-1.75-2-1.92-4,1.4-2.21,1.22-4.29-1.74-1.95-1.91-4,1.39-2.21,1.22-4.29l-20.26,1.4c.17,2.08-1.39,2.21-1.22,4.29s1.74,1.95,1.91,4-1.39,2.21-1.22,4.29,1.74,1.95,1.92,4-1.4,2.21-1.22,4.3,1.74,2,1.91,4Z"/><path fill="#4e4f50" d="M426.2 505.87h0a22.08 22.08 0 002.43 1.38 15 15 0 002.55.92c.88.22 1.77.43 2.69.59s1.83.38 2.73.51c1.79.37 3.62.37 5.57.9a12.16 12.16 0 015 2.88 21.94 21.94 0 00-5.25-1.68c-.88-.13-1.78-.17-2.73-.22s-1.9-.18-2.85-.33a30.27 30.27 0 01-5.54-1.49 11.67 11.67 0 01-2.56-1.42 11.47 11.47 0 01-2-2h0zM447.63 520.34a27.33 27.33 0 00-5.4-2.19 18.38 18.38 0 00-2.83-.38c-1-.09-2-.23-3-.41a31.69 31.69 0 01-5.81-1.72 10.79 10.79 0 01-4.69-3.84 16 16 0 005.12 2.69c.92.26 1.85.51 2.81.71s1.92.45 2.87.62 1.89.33 2.87.47a14.86 14.86 0 013 .69 12 12 0 012.73 1.43A16.62 16.62 0 01447.63 520.34zM425.69 518.62a15.64 15.64 0 005.13 2.42c.91.24 1.84.47 2.78.66s1.87.42 2.81.58 1.86.3 2.83.44a13 13 0 012.95.73 12.7 12.7 0 014.89 3.37h0a22.42 22.42 0 00-5.27-2.2 16.42 16.42 0 00-2.75-.42c-1-.09-1.95-.21-2.93-.38a32.57 32.57 0 01-5.71-1.62A10.55 10.55 0 01425.69 518.62z"/><path fill="#838383" d="M456.3,681.59c-.22-2.08-1.79-1.91-2-4s1.34-2.25,1.12-4.32-1.78-1.92-2-4,1.35-2.24,1.13-4.32-1.78-1.91-2-4,1.34-2.24,1.13-4.32l-20.23,1.84c.22,2.07-1.35,2.24-1.13,4.31s1.79,1.92,2,4-1.35,2.24-1.13,4.32,1.78,1.91,2,4-1.35,2.25-1.13,4.33,1.79,1.91,2,4Z"/><path fill="#4e4f50" d="M433.45 658.51h0a23.65 23.65 0 002.46 1.33 15.83 15.83 0 002.57.86c.89.2 1.78.39 2.7.53s1.83.34 2.74.45c1.8.33 3.63.3 5.6.78a12.1 12.1 0 015 2.77 21.45 21.45 0 00-5.28-1.56c-.88-.11-1.78-.14-2.73-.17s-1.91-.13-2.87-.26a30.93 30.93 0 01-5.56-1.37 11.22 11.22 0 01-2.59-1.36 11 11 0 01-2.08-2zM455.19 672.5a27.71 27.71 0 00-5.45-2.06 19.71 19.71 0 00-2.84-.33c-1-.06-2-.18-3-.33a31.82 31.82 0 01-5.84-1.6 10.71 10.71 0 01-4.77-3.74 15.92 15.92 0 005.18 2.58c.92.25 1.86.47 2.83.65s1.92.41 2.87.56 1.9.29 2.89.4a15.05 15.05 0 013 .63 11.29 11.29 0 012.76 1.37A17.16 17.16 0 01455.19 672.5zM433.22 671.26a15.71 15.71 0 005.18 2.32c.92.21 1.85.42 2.8.59s1.87.38 2.81.52 1.87.26 2.85.38a13.13 13.13 0 013 .66 13 13 0 015 3.27h0a22.89 22.89 0 00-5.31-2.09 16.67 16.67 0 00-2.76-.36c-1-.07-2-.16-2.94-.31a32.76 32.76 0 01-5.74-1.5A10.49 10.49 0 01433.22 671.26z"/><path fill="#838383" d="M459,792.89c-.22-2.08-1.78-1.92-2-4s1.35-2.25,1.13-4.32-1.79-1.92-2-4,1.35-2.24,1.13-4.32-1.78-1.91-2-4,1.35-2.24,1.13-4.32l-20.23,1.84c.22,2.07-1.34,2.24-1.13,4.31s1.79,1.92,2,4-1.35,2.24-1.13,4.32,1.78,1.91,2,4-1.34,2.25-1.13,4.33,1.79,1.91,2,4Z"/><path fill="#4e4f50" d="M436.19 769.81h0a22.54 22.54 0 002.45 1.33 15.94 15.94 0 002.58.86c.88.2 1.77.39 2.69.53s1.84.34 2.74.45c1.8.33 3.63.3 5.6.78a12.1 12.1 0 015 2.77A21.93 21.93 0 00452 775c-.88-.1-1.78-.13-2.73-.16s-1.91-.13-2.86-.26a31.24 31.24 0 01-5.57-1.37 10.33 10.33 0 01-4.67-3.36zM457.94 783.8a27.8 27.8 0 00-5.46-2.06 19.74 19.74 0 00-2.83-.33c-1-.06-2-.18-3-.33a31.92 31.92 0 01-5.85-1.6 10.75 10.75 0 01-4.76-3.74 16 16 0 005.17 2.58c.93.25 1.86.47 2.83.65s1.92.41 2.87.56 1.91.29 2.89.4a14.91 14.91 0 013 .63 11.29 11.29 0 012.76 1.37A17.88 17.88 0 01457.94 783.8zM436 782.56a15.62 15.62 0 005.18 2.32c.91.21 1.84.42 2.79.59s1.88.38 2.82.52 1.87.26 2.84.38a12.48 12.48 0 017.93 3.93h0a23.14 23.14 0 00-5.32-2.09 16.39 16.39 0 00-2.76-.36c-1-.07-2-.16-2.94-.31a33 33 0 01-5.74-1.5A10.52 10.52 0 01436 782.56z"/><path fill="#f6be1d" d="M466.85 662.55l-51.61 1.39c-2.3.22-4.26-1.54-4.63-4.17l-19-131.26c-.55-3.85 2.45-7.47 5.73-6.92l80.09 13.3c2.32.38 3.89 2.77 3.66 5.57L471.6 657C471.37 659.93 469.3 662.32 466.85 662.55zM463.64 768.86l-35.11 1.63c-2.62.27-4.74-2-4.74-5.06l.36-82.32c0-3.07 2.13-5.78 4.74-6.05l34.75 0c2.62-.27 4.74 2 4.74 5.07v80.66C468.38 765.88 466.26 768.59 463.64 768.86zM465.65 876.36l-35.65 0c-2.62.27-4.74-2-4.74-5.06l-1.11-80.67c0-3.07 2.13-5.78 4.74-6.05l36.75 0c2.62-.27 4.74 2 4.74 5.07v80.66C470.39 873.38 468.26 876.08 465.65 876.36z"/><path fill="#787878" d="M393.27 539.82v0h0a91.34 91.34 0 007.88 15.21c.77 1.16 1.54 2.32 2.36 3.39s1.71 2.14 2.59 3.2l5.28 6.41c3.54 4.27 7 8.65 10.42 13L432 594.38l5 6.75a39.55 39.55 0 014.07 8c.57 1.42 1 2.91 1.45 4.39s.8 3 1.06 4.55a67.56 67.56 0 011.19 9.34c.8 12.63-1.13 25.35-4.11 37.57 1.45-12.46 2.48-25 1.17-36.92a63.24 63.24 0 00-4-16.89 38.55 38.55 0 00-3.82-7.26L429 597.35 419.05 584c-3.3-4.51-6.67-9-9.93-13.51-1.64-2.27-3.3-4.51-4.92-6.81-.81-1.16-1.62-2.31-2.41-3.53s-1.51-2.48-2.19-3.77a75 75 0 01-6.33-16.55h0zM468.38 687.66c-1.64 7.8-3.59 15.5-5.74 23.13s-4.43 15.23-7.05 22.75a107.53 107.53 0 01-4.49 11.22 93.74 93.74 0 01-6 10.34A83.63 83.63 0 01430 772.33h0a175.19 175.19 0 0012.78-19.11c1.85-3.34 3.67-6.75 5.21-10.23s2.82-7.13 4.11-10.83c2.58-7.41 5.13-14.89 7.79-22.33S465.27 695 468.38 687.66z"/><polygon fill="#ee9e23" points="478.13 577.15 461.53 577.25 458.57 619.35 474.69 619.25 478.13 577.15"/><polygon fill="#ee9e23" points="424.16 742.56 434.41 741.5 434.41 699.56 424.15 700.62 424.16 742.56"/><polygon fill="#ee9e23" points="424.9 827.41 436.75 827.41 436.75 791.65 424.42 792.33 424.9 827.41"/><path fill="#ee9e23" d="M425.26,870.6c0,3.48,2.12,6,4.74,5.74h35.65c2.61-.3,4.74-3.37,4.74-6.84V815.14c-.3,0-.59,0-.89,0h-4c-17.84,0-33.26,14.17-40.51,34.71Z"/><path fill="#f6be1d" d="M427.6,876.37h0c0-29.88,20.12-54.1,44.94-54.1h4c24.81,0,44.93,24.22,44.93,54.1Z"/></g><g data-name="Robot\Head\Side"><path fill="#838383" d="M440.44,390c-.06-2.09-1.63-2.05-1.7-4.14s1.52-2.13,1.46-4.22-1.64-2-1.7-4.13,1.51-2.13,1.45-4.21-1.63-2-1.69-4.13,1.51-2.13,1.45-4.22l-20.3.3c.06,2.09-1.52,2.13-1.46,4.22s1.64,2,1.7,4.13-1.51,2.13-1.45,4.21,1.63,2.05,1.69,4.13-1.51,2.14-1.45,4.23,1.63,2,1.69,4.13Z"/><path fill="#4e4f50" d="M419.41 365.25h0c5.89 5 15.13 2.6 20.53 8.29-6.49-3.7-15.86-1.42-20.54-8.29zM440 380.85c-6.52-4.54-16.68-2.2-21.24-9.7C424.77 376.87 434.66 374.36 440 380.85zM418.21 378c6 5.26 15.84 2.81 20.92 9.36h0C432.81 382.68 422.92 385 418.21 378z"/><path fill="#57b747" d="M466.6,365.28c-93.34-4.95-78.43,25.28-79.32-68.5a8,8,0,0,1,8-8c93.34,4.94,78.43-25.29,79.32,68.49A8,8,0,0,1,466.6,365.28Z"/><path fill="#96c952" d="M481.87,310.43c.06-4-4.36-4.18-7.29-3.93v29.85c2.94.24,7.35,0,7.29-3.94Z"/><rect width="4.72" height="57.73" x="428.2" y="269.3" fill="#4e4f50" transform="rotate(-.74 427.817 296.218)"/><path fill="#96c952" d="M444.26 269.32H416.62a3 3 0 01-3-3c-.28-2 .74-4.21 3-4.18h27.64C448.34 262.08 448.35 269.38 444.26 269.32zM446 328.07c-1.45 19.72-31.43 17.64-30.16-2.09C417.31 306.27 447.29 308.34 446 328.07z"/></g><g><path fill="#3e5fab" d="M635.63,409.8h-20V386.48h20a11.66,11.66,0,0,1,0,23.32Zm-16-4h16a7.66,7.66,0,0,0,0-15.32h-16Z"/><path fill="#f9bf1f" d="M547.07,385.42H631a0,0,0,0,1,0,0v0a36.42,36.42,0,0,1-36.42,36.42H583.49a36.42,36.42,0,0,1-36.42-36.42v0A0,0,0,0,1,547.07,385.42Z"/><path fill="#f9bf1f" d="M569.77 328.85a2.72 2.72 0 01-.28 2 7.45 7.45 0 01-1.29 1.56 5.45 5.45 0 00-1.06 1.26 1.83 1.83 0 00-.2 1.13 1.57 1.57 0 00.47.91 8.11 8.11 0 001.21.92 7.88 7.88 0 011.71 1.46 4.19 4.19 0 010 5.3 7.61 7.61 0 01-1.71 1.46 7.94 7.94 0 00-1.2.92 1.56 1.56 0 00-.46.91 1.75 1.75 0 00.19 1.13 5.54 5.54 0 001.07 1.25 7.55 7.55 0 011.28 1.58 2.71 2.71 0 01.28 2c-.34-1.32-1.33-1.82-2.44-2.38A7.16 7.16 0 01565.6 349a3.7 3.7 0 01-1-2.34 4 4 0 01.74-2.56 8.51 8.51 0 011.58-1.56 5.85 5.85 0 001.09-1 1.3 1.3 0 00.27-.82 1.28 1.28 0 00-.27-.82 5.44 5.44 0 00-1.08-1 8.51 8.51 0 01-1.58-1.56 3.93 3.93 0 01-.75-2.55 3.73 3.73 0 011-2.34 6.89 6.89 0 011.73-1.22C568.44 330.67 569.43 330.16 569.77 328.85zM590.84 351.06a2.72 2.72 0 01-.28 2 7.46 7.46 0 01-1.29 1.57 6 6 0 00-1.06 1.25A1.83 1.83 0 00588 357a1.63 1.63 0 00.47.92 8 8 0 001.21.91 7.69 7.69 0 011.71 1.47 4.19 4.19 0 010 5.3 7.93 7.93 0 01-1.71 1.46 7.84 7.84 0 00-1.2.91 1.56 1.56 0 00-.46.92 1.73 1.73 0 00.2 1.12 5.45 5.45 0 001.06 1.26 7.48 7.48 0 011.28 1.57 2.67 2.67 0 01.28 2c-.34-1.31-1.33-1.82-2.44-2.38a7.16 7.16 0 01-1.73-1.22 3.68 3.68 0 01-1-2.34 3.92 3.92 0 01.74-2.55 8 8 0 011.59-1.57 6.07 6.07 0 001.08-1 1.38 1.38 0 000-1.64 5.62 5.62 0 00-1.07-1 8 8 0 01-1.59-1.56 4 4 0 01-.75-2.55 3.73 3.73 0 011-2.34 6.89 6.89 0 011.73-1.22C589.51 352.88 590.5 352.37 590.84 351.06zM605.77 317a2.71 2.71 0 01-.28 2 7.78 7.78 0 01-1.29 1.57 5.42 5.42 0 00-1.06 1.25 1.84 1.84 0 00-.2 1.13 1.6 1.6 0 00.47.92 7.52 7.52 0 001.21.91 7.69 7.69 0 011.71 1.47 4.19 4.19 0 010 5.3 8.17 8.17 0 01-1.71 1.46 7.37 7.37 0 00-1.2.91 1.59 1.59 0 00-.46.92 1.72 1.72 0 00.19 1.12 5.56 5.56 0 001.07 1.26 7.75 7.75 0 011.28 1.57 2.72 2.72 0 01.28 2c-.34-1.31-1.33-1.82-2.44-2.38a6.89 6.89 0 01-1.73-1.22 3.68 3.68 0 01-1-2.34 3.92 3.92 0 01.74-2.55 8.3 8.3 0 011.58-1.57 5.85 5.85 0 001.09-1 1.28 1.28 0 00.27-.82A1.3 1.3 0 00604 328a5.44 5.44 0 00-1.08-1 8.21 8.21 0 01-1.58-1.56 3.91 3.91 0 01-.75-2.55 3.76 3.76 0 011-2.34 7.16 7.16 0 011.73-1.22C604.44 318.78 605.43 318.28 605.77 317z" opacity=".31"/><path fill="#f09f21" d="M613.75,411.25H602.69a36.44,36.44,0,0,1-34.86-25.83H547.07a36.42,36.42,0,0,0,36.42,36.42h11.06a36.33,36.33,0,0,0,26.35-11.29A36.58,36.58,0,0,1,613.75,411.25Z"/></g><g data-name="Robot\Leg\Front"><polygon fill="#c4cfe6" points="784.84 875.69 767.11 875.69 797.11 603.83 824.84 603.83 784.84 875.69"/><polygon fill="#a8b9df" points="795.6 617.53 822.83 617.53 824.84 603.83 797.11 603.83 795.6 617.53"/><polygon fill="#c4cfe6" points="966.68 875.69 984.41 875.69 954.41 603.83 926.68 603.83 966.68 875.69"/><polygon fill="#a8b9df" points="955.92 617.53 928.7 617.53 926.63 603.83 954.41 603.83 955.92 617.53"/><rect width="213.32" height="18.65" x="771.09" y="586.24" fill="#cfd7ed" rx="3"/><circle cx="865.06" cy="770.35" r="8.97" fill="#30302f"/><path fill="none" stroke="#30302f" stroke-miterlimit="10" stroke-width="3" d="M854.84,746l9.44-.69c1.75-.13,3.23.8,3.23,2l.21,38.53c0,1.16-1.28,2.17-2.92,2.29l-5.64.41"/><polygon fill="#ee465e" points="829.61 766.74 860.02 765.98 849.89 643.38 948.72 586.5 898.99 555.11 838.97 642.13 829.61 766.74"/><path fill="#4e4f50" d="M929,567.68h3.48a22.8,22.8,0,0,1,22.8,22.8V594a3,3,0,0,1-3,3H929a3,3,0,0,1-3-3V570.68A3,3,0,0,1,929,567.68Z" transform="rotate(-180 940.59 582.32)"/><path fill="#797979" d="M950.78,580.08H952a3.26,3.26,0,0,0,3.27-3.26v7.84a3.27,3.27,0,0,1-3.27,3.27h-1.18A24.84,24.84,0,0,1,926,563.09v-1.18a3.23,3.23,0,0,1,.5-1.71A24.83,24.83,0,0,0,950.78,580.08Z"/><path fill="#4e4f50" d="M893.84,600.34c-3.8,4.12-7.78,8-11.75,12s-8,7.73-12.14,11.5-8.25,7.49-12.38,11.22-8.4,7.31-12.6,11l1-2.43c.38,7.67.74,15.34,1,23s.56,15.34.67,23,.26,15.36.3,23,0,15.38-.3,23.08c-1.06-7.63-1.84-15.28-2.64-22.93s-1.45-15.3-2-22.95-1.11-15.32-1.66-23-.93-15.32-1.33-23l-.07-1.49,1.12-.94c4.27-3.57,8.51-7.18,12.81-10.72s8.62-7.05,13-10.46,8.81-6.83,13.27-10.18S889.18,603.45,893.84,600.34Z"/><circle cx="776.97" cy="767.77" r="8.97" fill="#30302f"/><path fill="none" stroke="#30302f" stroke-miterlimit="10" stroke-width="3" d="M768.55,742.76H778c1.75,0,3.15,1,3.07,2.28l-2.61,38.44c-.08,1.16-1.43,2.08-3.07,2.08h-5.66"/><polygon fill="#ee465e" points="773.45 766.74 743.03 765.98 763.82 643.38 849.42 574.07 933.74 574.07 775.94 646.68 773.45 766.74"/><path fill="#4e4f50" d="M847,567.68h23.28a3,3,0,0,1,3,3v3.48a22.8,22.8,0,0,1-22.8,22.8H847a3,3,0,0,1-3-3V570.68a3,3,0,0,1,3-3Z"/><path fill="#797979" d="M848.42,580.08h-1.18a3.26,3.26,0,0,1-3.26-3.26v7.84a3.27,3.27,0,0,0,3.26,3.27h1.18a24.84,24.84,0,0,0,24.84-24.84v-1.18a3.23,3.23,0,0,0-.5-1.71A24.83,24.83,0,0,1,848.42,580.08Z"/><path fill="#ee9e23" d="M773.43,766v32.39H701.92v-11a7.64,7.64,0,0,1,7.45-7.62C719.8,779.51,738,777.35,743,766h30.4Z"/><path fill="#30302f" d="M773.25,798.37a8.91,8.91,0,0,0-2.9-6,8.48,8.48,0,0,0-6-2.17,8.07,8.07,0,0,0-5.61,2.57,7.93,7.93,0,0,0-2.14,5.61h-2.33a7.86,7.86,0,0,0-2.37-5.37,7.59,7.59,0,0,0-10.65.1,7.44,7.44,0,0,0-2.15,5.27h-3a7.4,7.4,0,0,0-2.15-5.26,7.59,7.59,0,0,0-10.64-.11,7.88,7.88,0,0,0-2.37,5.37h-2.34a8,8,0,0,0-2.14-5.61,8.15,8.15,0,0,0-5.61-2.57,8.46,8.46,0,0,0-6,2.17,8.91,8.91,0,0,0-2.9,6,8.94,8.94,0,0,1,2.31-6.59,9.44,9.44,0,0,1,6.6-3.06,9.76,9.76,0,0,1,7,2.65,10,10,0,0,1,3.09,7h-2.34a10,10,0,0,1,2.85-7.23A10.25,10.25,0,0,1,736,791a10.47,10.47,0,0,1,3.07,7.34h-3a10.44,10.44,0,0,1,3.08-7.34,10.24,10.24,0,0,1,14.57.11,10,10,0,0,1,2.85,7.23h-2.33a9.87,9.87,0,0,1,3.09-7,9.76,9.76,0,0,1,7-2.65,9.37,9.37,0,0,1,6.6,3A8.91,8.91,0,0,1,773.25,798.37Z"/><path fill="#ee9e23" d="M860,766v32.39H788.49v-11a7.64,7.64,0,0,1,7.46-7.62c10.43-.28,28.66-2.44,33.66-13.81H860Z"/><path fill="#30302f" d="M859.83,798.37a8.91,8.91,0,0,0-2.9-6,8.48,8.48,0,0,0-6-2.17,8.07,8.07,0,0,0-5.61,2.57,7.93,7.93,0,0,0-2.14,5.61h-2.33a7.86,7.86,0,0,0-2.37-5.37,7.59,7.59,0,0,0-10.65.1,7.44,7.44,0,0,0-2.15,5.27h-3a7.4,7.4,0,0,0-2.15-5.26,7.59,7.59,0,0,0-10.64-.11,7.88,7.88,0,0,0-2.37,5.37h-2.34a8,8,0,0,0-2.14-5.61,8.15,8.15,0,0,0-5.61-2.57,8.46,8.46,0,0,0-6,2.17,9,9,0,0,0-2.91,6,9,9,0,0,1,2.32-6.59,9.44,9.44,0,0,1,6.6-3.06,9.76,9.76,0,0,1,7,2.65,10,10,0,0,1,3.09,7h-2.34a10,10,0,0,1,2.85-7.23,10.25,10.25,0,0,1,14.58-.11,10.47,10.47,0,0,1,3.07,7.34h-3a10.44,10.44,0,0,1,3.08-7.34,10.24,10.24,0,0,1,14.57.11,10,10,0,0,1,2.85,7.23h-2.33a9.87,9.87,0,0,1,3.09-7,9.76,9.76,0,0,1,7-2.65,9.37,9.37,0,0,1,6.6,3A8.91,8.91,0,0,1,859.83,798.37Z"/><circle cx="843.03" cy="643.71" r="14.78" fill="#4e4f50"/><circle cx="843.03" cy="643.71" r="8.45" fill="#f6be1d"/><path fill="#30302f" d="M856.46,572.67a192.41,192.41,0,0,0,86,.74,58.45,58.45,0,0,1,13.74-41.16,2.17,2.17,0,0,0-1.68-3.56H844.22a2.17,2.17,0,0,0-1.78,3.41,80.75,80.75,0,0,1,11.28,24.12A78.89,78.89,0,0,1,856.46,572.67Z"/><path fill="#f6be1d" d="M856.46,572.67a192.41,192.41,0,0,0,86,.74,58.45,58.45,0,0,1,13.74-41.16,2.17,2.17,0,0,0-1.68-3.56H844.22a2.17,2.17,0,0,0-1.78,3.41,80.75,80.75,0,0,1,11.28,24.12A78.89,78.89,0,0,1,856.46,572.67Z"/><path fill="#ee9e23" d="M853.72,556.22c-.17-.64-.37-1.24-.56-1.86,7.65,4,16.27,4.31,34.2,3.46,16.36-.77,29.62-16.08,36.53-29.13h30.33c-.06,2.11-.14,4.23-.24,6.34a58.32,58.32,0,0,0-11.55,38.38,192.41,192.41,0,0,1-86-.74A78.89,78.89,0,0,0,853.72,556.22Z"/><path fill="#545454" d="M882.57,554.46a29.26,29.26,0,0,1,34.51-1l2.36,1.61a25.08,25.08,0,0,0,24.26,2.41c-.19.86-.35,1.7-.5,2.53a27.19,27.19,0,0,1-25-3.14l-2.36-1.62a27.1,27.1,0,0,0-32,.9,27.3,27.3,0,0,1-29.53,2.53c-.2-.82-.41-1.65-.65-2.49,0-.16-.1-.32-.14-.48a25.18,25.18,0,0,0,29-1.28Z"/><path fill="#484748" d="M907.57 549.22a29.3 29.3 0 019.51 4.27l2.36 1.61a25.08 25.08 0 0024.26 2.41c-.19.86-.35 1.7-.5 2.53h0a27.19 27.19 0 01-25-3.14l-2.36-1.62A27.22 27.22 0 00905.33 551C906.09 550.41 906.84 549.82 907.57 549.22zM867.14 559.72a25.18 25.18 0 008.56-1.52c1.67 0 3.45-.06 5.35-.12a27.2 27.2 0 01-26.68.63h0c-.2-.82-.41-1.65-.65-2.49 0-.16-.1-.32-.14-.48A25.32 25.32 0 00867.14 559.72z"/><path fill="#f8e782" d="M921.34,530.87A178.21,178.21,0,0,1,897,535.24c-8.14,1-16.3,1.52-24.45,1.81-2,.08-4.08.15-6.12.17s-4.08.07-6.13,0-4.08,0-6.12-.06l-3.06-.06-1.53-.06h-.19c-.07,0-.16,0-.07,0a3.22,3.22,0,0,0,.32-.07,2.24,2.24,0,0,0,.71-.35,2,2,0,0,0,.56-2.53,1.46,1.46,0,0,0-.17-.24s-.05,0,0,0l.05.09.1.17.37.69.73,1.43a36.8,36.8,0,0,1,2.47,6.14,41.15,41.15,0,0,1,1.43,12.74c-2.34-3.56-4.26-7.25-6.49-10.37-1.1-1.56-2.29-3-3.56-4.49l-1-1.12-.49-.57-.12-.14-.06-.07-.13-.19a6,6,0,0,1-.53-.92,6.27,6.27,0,0,1-.33-4.33,6.34,6.34,0,0,1,2.59-3.56,6.52,6.52,0,0,1,2.12-.91,6.27,6.27,0,0,1,1.08-.16l.51,0,1.52-.14,3.06-.22c2-.16,4.07-.26,6.1-.36s4.08-.19,6.11-.26,4.07-.11,6.11-.14c8.15-.11,16.3,0,24.46.6A175.12,175.12,0,0,1,921.34,530.87Z"/><path fill="#f6be1d" d="M899.05,579.9a194.54,194.54,0,0,1-43-5.29l-1.44-.34-.09-1.48a77.6,77.6,0,0,0-13.68-39.55,4.18,4.18,0,0,1,3.43-6.55H954.49a4.17,4.17,0,0,1,3.21,6.84,56.5,56.5,0,0,0-13.27,39.77l.09,1.7-1.66.37a195.15,195.15,0,0,1-41.79,4.54ZM942.24,555a61.08,61.08,0,0,1,12.39-24,.14.14,0,0,0,0-.18.15.15,0,0,0-.16-.1H844.22a.15.15,0,0,0-.15.09.17.17,0,0,0,0,.19,81.78,81.78,0,0,1,14.28,40.09,190.39,190.39,0,0,0,82,.75A60.65,60.65,0,0,1,942.24,555Z"/><path fill="#4e4f50" d="M816.58,609.94c-3.4,3.35-7,6.48-10.5,9.62s-7.19,6.16-10.84,9.15-7.36,5.94-11.08,8.84-7.5,5.75-11.28,8.57l1.2-2.13q-1,10.71-2.11,21.41c-.77,7.14-1.57,14.27-2.45,21.39s-1.81,14.25-2.84,21.36-2.11,14.21-3.43,21.3c0-7.21.25-14.39.49-21.57s.66-14.35,1.08-21.52.94-14.32,1.48-21.47,1.16-14.31,1.81-21.45l.12-1.34,1.08-.8q5.69-4.2,11.46-8.31t11.66-8c3.93-2.63,7.89-5.22,11.9-7.73S812.39,612.22,816.58,609.94Z"/><circle cx="768.03" cy="643.71" r="14.78" fill="#4e4f50"/><circle cx="768.03" cy="643.71" r="8.45" fill="#f6be1d"/></g><g data-name="Robot\Head\Front"><rect width="20.14" height="25.88" x="890.07" y="385.49" fill="#30302f" transform="rotate(-180 900.135 398.43)"/><path fill="#aa3552" d="M879.32,398.08h51.47a2.42,2.42,0,0,0,2.4-2.77l-11.39-77.1a2.43,2.43,0,0,0-2.4-2.07H890.71a2.43,2.43,0,0,0-2.4,2.07l-11.39,77.1A2.42,2.42,0,0,0,879.32,398.08Z"/><rect width="20.14" height="25.88" x="881.61" y="385.49" fill="#474748" transform="rotate(-180 891.68 398.43)"/><path fill="#ee465e" d="M865.94,398.08h51.48a2.41,2.41,0,0,0,2.39-2.77l-11.39-77.1a2.41,2.41,0,0,0-2.39-2.07H877.34a2.42,2.42,0,0,0-2.4,2.07l-11.39,77.1A2.42,2.42,0,0,0,865.94,398.08Z"/><path fill="#d13f5b" d="M865.94,398.08a2.42,2.42,0,0,1-2.39-2.77l2.37-16.09c13.75-4.91,24.48-19.32,29.75-30.7,2.68-5.8,6.56-20.56,9.58-32.38H906a2.41,2.41,0,0,1,2.39,2.07l11.39,77.1a2.41,2.41,0,0,1-2.39,2.77Z"/><circle cx="891.68" cy="351.14" r="14.78" fill="#30302f"/><path fill="#212120" d="M891.68,365.92a14.77,14.77,0,0,1-6.2-1.37,74.66,74.66,0,0,0,10.19-16,88.81,88.81,0,0,0,3.53-10.09,14.77,14.77,0,0,1-7.52,27.49Z"/><path fill="#4e4f50" d="M865.22,384a25.33,25.33,0,0,0,9.88-4.62,29.26,29.26,0,0,1,34.51-1L912,380a25.2,25.2,0,0,0,6,3.06l.36,2.41a27.43,27.43,0,0,1-7.62-3.67l-2.36-1.62a27.1,27.1,0,0,0-32,.9,27.38,27.38,0,0,1-11.55,5.19Z"/><circle cx="891.68" cy="346.02" r="14.78" fill="#535454"/><path fill="#474748" d="M891.68,360.81a14.71,14.71,0,0,1-3.06-.32,74.66,74.66,0,0,0,7-12,115.38,115.38,0,0,0,4.78-14.38,14.78,14.78,0,0,1-8.77,26.67Z"/><circle cx="891.68" cy="346.02" r="8.45" fill="#30302f"/><rect width="13.52" height="2.5" x="917.92" y="382.57" fill="#474748" transform="rotate(-4.39 924.734 383.866)"/></g><g data-name="Robot\Body\Front"><circle cx="797.81" cy="437.92" r="9.91" fill="#30302f"/><circle cx="771.88" cy="432.76" r="14.78" fill="#30302f"/><circle cx="749.56" cy="418.58" r="9.91" fill="#30302f"/><circle cx="1010.6" cy="526.06" r="9.91" fill="#30302f"/><circle cx="1015.48" cy="552.05" r="14.78" fill="#30302f"/><circle cx="1010.63" cy="578.04" r="9.91" fill="#30302f"/><rect width="42.8" height="16.42" x="875.76" y="510.61" fill="#4e4f50" transform="rotate(-180 897.16 518.815)"/><path fill="#f6be1d" d="M847.41,515.78l7.56.92a346.25,346.25,0,0,0,84.38,0l7.56-.92a4.35,4.35,0,0,0,3.77-3.72l.86-6.34a347.08,347.08,0,0,0,1.86-76.64l-.69-7.95a4.32,4.32,0,0,0-4-3.94l-24.43-1.92a346.34,346.34,0,0,0-54.28,0l-24.43,1.92a4.32,4.32,0,0,0-4,3.94l-.69,7.95a347.08,347.08,0,0,0,1.86,76.64l.86,6.34A4.35,4.35,0,0,0,847.41,515.78Z"/><path fill="#ee9e23" d="M843.64,512.06l-.86-6.34q-1.49-10.94-2.26-21.94c14,13.89,19.48,15.2,47.19,13.89,17.74-.84,31.86-18.8,38.16-32.41,4.54-9.81,12.52-45.35,13.94-48.77l8.92.7a4.32,4.32,0,0,1,4,3.94l.69,7.95a347.08,347.08,0,0,1-1.86,76.64l-.86,6.34a4.35,4.35,0,0,1-3.77,3.72l-7.56.92a346.25,346.25,0,0,1-84.38,0l-7.56-.92A4.35,4.35,0,0,1,843.64,512.06Z"/><path fill="#f6be1d" d="M879.86,422.6a54.94,54.94,0,0,0,8.94,8h0c-1.07.57-29.09,14.78-66.86,15-34.76.21-86.67-11.25-136.61-67l8.08-7.23c37.78,42.19,80.83,63.52,127.94,63.4C851.73,434.74,874.09,425.29,879.86,422.6Z"/><circle cx="769.62" cy="438.37" r="14.78" fill="#4e4f50"/><circle cx="769.62" cy="438.37" r="8.45" fill="#30302f"/><circle cx="796" cy="442.44" r="9.91" fill="#4e4f50"/><circle cx="796" cy="442.44" r="5.01" fill="#30302f"/><circle cx="747.74" cy="423.11" r="9.91" fill="#4e4f50"/><circle cx="747.74" cy="423.11" r="5.01" fill="#30302f"/><path fill="#ee9e23" d="M655.22,375.42l6.4-5.85a15.64,15.64,0,0,0,23.08-21.11l6.4-5.85a24.31,24.31,0,0,1-35.88,32.81Z"/><circle cx="688.56" cy="374.27" r="9.91" fill="#4e4f50"/><circle cx="688.56" cy="374.27" r="5.01" fill="#ee9e23"/><path fill="#f8e782" d="M927.38 451.64V414.51l21.43 1.68a5.32 5.32 0 014.9 4.86l.69 7.95c.79 9.11 1.22 18.47 1.28 27.83v1h-22.1A6.21 6.21 0 01927.38 451.64zm25-22.47l-.68-7.95a3.34 3.34 0 00-3.07-3l-19.27-1.51v35a4.2 4.2 0 004.2 4.2h20.09C953.59 446.87 953.16 437.9 952.4 429.17zM839.26 494.34V457.21l21.44 1.68a5.3 5.3 0 014.89 4.86l.69 7.95c.79 9.1 1.22 18.47 1.28 27.83v1H845.46A6.21 6.21 0 01839.26 494.34zm25-22.47l-.69-7.95a3.33 3.33 0 00-3.06-3l-19.28-1.51v35a4.21 4.21 0 004.2 4.2h20.09C865.47 489.56 865.05 480.6 864.29 471.87z"/><path fill="#ee9e23" d="M869.33 415.32v26.81a4.34 4.34 0 01-4.34 4.34H852.2a4.34 4.34 0 01-4.34-4.34V417zM871.23 495.21a4.34 4.34 0 014.34 4.34V518.6q-10.32-.65-20.6-1.9l-7.56-.92a4.35 4.35 0 01-3.77-3.72l-.86-6.34c-.47-3.5-.88-7-1.25-10.51z"/><path fill="#e77b26" d="M855.58 495.21c5.1 2.19 10.93 2.9 19.71 2.85a4.29 4.29 0 01.28 1.49V518.6q-10.23-.65-20.43-1.88l-.17 0-7.56-.92a4.35 4.35 0 01-3-1.75 4.29 4.29 0 01-.8-2l-.86-6.34c-.47-3.5-.88-7-1.25-10.51zM938.65 478h15.51q-.76 13.88-2.62 27.68l-.86 6.34a4.35 4.35 0 01-3.77 3.72l-7.56.92c-2.4.3-4.8.53-7.2.77V484.54A6.5 6.5 0 01938.65 478z"/><path fill="#4e4f50" d="M874.09,415a14.33,14.33,0,0,1,14-11.22h16.38a14.3,14.3,0,0,1,13.93,11.09A348,348,0,0,0,874.09,415Z"/><path fill="#ee9e23" d="M954.7 471.8l9.1-12.1c13-25 5.37-29.56-7.95-36.85l-3.14-1.72zM839.93 471.8l-9.1-12.1c-13-25-5.38-29.56 7.95-36.85l3.13-1.72z"/><path fill="#e77b26" d="M854.71,518.85l-7.56-.92a6.52,6.52,0,0,1-5.66-5.58l-.86-6.34a350.11,350.11,0,0,1-1.87-77.11l.69-7.95a6.49,6.49,0,0,1,6-5.93l24.43-1.91a350.69,350.69,0,0,1,54.62,0L948.9,415a6.49,6.49,0,0,1,6,5.93l.69,7.95A350.11,350.11,0,0,1,953.69,506l-.87,6.34a6.49,6.49,0,0,1-5.65,5.58l-7.56.92a349.17,349.17,0,0,1-84.9,0Zm15.48-101.42-24.43,1.92a2.15,2.15,0,0,0-2,2l-.69,7.95a345.18,345.18,0,0,0,1.85,76.16l.86,6.34a2.15,2.15,0,0,0,1.88,1.85l7.57.93a344.83,344.83,0,0,0,83.84,0l7.56-.93a2.15,2.15,0,0,0,1.89-1.85l.86-6.34a345.18,345.18,0,0,0,1.85-76.16l-.69-7.95a2.15,2.15,0,0,0-2-2l-24.43-1.92c-9-.7-18-1.05-27-1.05S879.14,416.73,870.19,417.43Z"/><path fill="#f6be1d" d="M965.82,455.63a55.15,55.15,0,0,0,4.12-11.3h0c.93.78,24.55,21.49,38.83,56.46,13.14,32.18,21.85,84.62-11.29,151.74l-9.72-4.8c25.08-50.78,28.84-98.68,11.17-142.36C987.56,477.21,970.47,460,965.82,455.63Z"/><circle cx="1021.52" cy="552.05" r="14.78" fill="#4e4f50"/><circle cx="1021.52" cy="552.05" r="8.45" fill="#30302f"/><circle cx="896.13" cy="468.55" r="14.78" fill="#30302f"/><circle cx="896.13" cy="462.5" r="14.78" fill="#4e4f50"/><circle cx="896.13" cy="462.5" r="8.45" fill="#30302f"/><circle cx="1015.48" cy="526.06" r="9.91" fill="#4e4f50"/><circle cx="1015.48" cy="526.06" r="5.01" fill="#30302f"/><circle cx="1015.51" cy="578.04" r="9.91" fill="#4e4f50"/><circle cx="1015.51" cy="578.04" r="5.01" fill="#30302f"/><path fill="#ee9e23" d="M1005.72,681.67a24.31,24.31,0,0,0-43.81-21.07l7.81,3.76a15.63,15.63,0,1,1,28.18,13.55Z"/><circle cx="992.24" cy="651.16" r="9.91" fill="#4e4f50"/><circle cx="992.24" cy="651.16" r="5.01" fill="#ee9e23"/><circle cx="936.73" cy="482.85" r="1.87" fill="#020202"/><circle cx="864.69" cy="441.1" r="1.87" fill="#020202"/><circle cx="851.54" cy="441.1" r="1.87" fill="#020202"/><circle cx="851.54" cy="423.01" r="1.87" fill="#020202"/><circle cx="864.69" cy="421.13" r="1.87" fill="#020202"/><circle cx="871.2" cy="499.63" r="1.87" fill="#020202"/><circle cx="847.86" cy="499.54" r="1.87" fill="#020202"/><circle cx="948.34" cy="482.85" r="1.87" fill="#020202"/><circle cx="935.85" cy="511.48" r="1.87" fill="#020202"/><circle cx="871.2" cy="512.48" r="1.87" fill="#020202"/></g><g data-name="Robot/Body/side"><g data-name="Robot\Body\Side\14"><rect width="34.57" height="37.84" x="420.1" y="493.86" fill="#4e4f50"/><path fill="#4e4f50" d="M430.48,468.84c1.43,4.57,3.07,9.27,4.89,14l1.69-.37a9.17,9.17,0,0,0,7-10.89l-6.15-28.24a9.17,9.17,0,0,0-10.89-7l-2.5.54C424.47,444.21,426,454.43,430.48,468.84Z"/><path fill="#657ebd" d="M394.83,499.47a6.1,6.1,0,0,1-6.18-6l-1.08-103.72a6.1,6.1,0,0,1,6-6.18l72.33-.91a6.09,6.09,0,0,1,6.17,6c19,54.39,23.44,105.64,14.51,110.69C483.56,501.07,394.83,499.47,394.83,499.47Z"/><rect width="4.57" height="3.43" x="402.48" y="383.41" fill="#526db3" transform="rotate(-1.42 403.214 383.914)"/><polygon fill="#526db3" points="402.52 397.6 402.43 390.17 407.01 390.05 407.09 397.48 402.52 397.6"/><polygon fill="#526db3" points="402.52 408.42 402.43 400.99 407.01 400.87 407.09 408.3 402.52 408.42"/><path fill="#526db3" d="M404.61,489.27l-.18-7,4.58-.12.17,7Zm-.35-14.06-.17-7,4.57-.12.17,7Zm-.35-14.07-.17-7,4.57-.11.18,7Zm-.35-14.06-.17-7,4.57-.11.18,7ZM403.22,433l-.18-7,4.57-.11.18,7ZM402.87,419l-.18-7,4.58-.12.17,7Z"/><rect width="4.57" height="3.43" x="404.82" y="496.24" fill="#526db3" transform="rotate(-1.42 405.859 496.129)"/><path fill="#526db3" d="M467.83,463.86c-37-1.5-44.24-11.51-46.3-16.21-.31-.71-3-7.06-.1-11.8,4.41-7.25,18.74-5.64,27.35-5A237.59,237.59,0,0,0,575.11,403c8.25-3.8,15.08-7.1,21.2-4.31,6.74,3.06,10.83,12.67,10.3,19.84C604.47,447.27,523.72,466.13,467.83,463.86Z"/><path fill="#4e4f50" d="M600.91 402.18a23.59 23.59 0 015.7 16.38 16.73 16.73 0 01-1.22 5 11.24 11.24 0 003.31-1.26 10.94 10.94 0 00-7.79-20.16zM467.83 463.86c4.79.2 9.76.23 14.84.13l.23-1.72A9.18 9.18 0 00475 452l-28.66-3.72a9.17 9.17 0 00-10.25 7.89l-.33 2.53C442.61 461.23 452.75 463.25 467.83 463.86zM527.07 422.39q-5.66 1.59-11.13 2.83l2 8.79a4.07 4.07 0 004.86 3.09L536 434.16a4.08 4.08 0 003.09-4.86l-2.2-9.9Q532.12 421 527.07 422.39z"/></g></g></svg>